<svg xmlns="http://www.w3.org/2000/svg" viewBox="0 0 80 80"><path fill="#8bb7f0" d="M0.5 11.5H79.5V66.5H0.5z"/><path fill="#4e7ab5" d="M79,12v54H1V12H79 M80,11H0v56h80V11L80,11z"/><path fill="#fff" d="M0 18.589L37.314 43.483 42.624 34.267 7.82 11 0 11z"/><path fill="#fff" d="M80 11L73.876 11 39.073 34.265 44.381 43.483 80 19.687z"/><path fill="#fff" d="M44.381 33.088L39.073 42.304 76.082 67 80 67 80 56.882z"/><path fill="#fff" d="M0 57.984L0 67 6 67 42.624 42.306 37.316 33.088z"/><path fill="#fff" d="M1 33H79V45H1z"/><path fill="#fff" d="M34 12H46V66H34z"/><path fill="#a3b7cc" d="M34 11H46V12H34zM34 66H46V67H34zM79 33H80V45H79zM0 33H1V45H0z"/><path fill="#f78f8f" d="M36.5 66.5L36.5 42.5 0.5 42.5 0.5 35.5 36.5 35.5 36.5 11.5 43.5 11.5 43.5 35.5 79.5 35.5 79.5 42.5 43.5 42.5 43.5 66.5z"/><path fill="#c74343" d="M43,12v23v1h1h35v6H44h-1v1v23h-6V43v-1h-1H1v-6h35h1v-1V12H43 M44,11h-8v24H0v8h36v24h8V43h36v-8 H44V11L44,11z"/><path fill="#c74343" d="M80 11L78 11 46 33 50.931 33 80 13zM34 45L29.069 45 0 65 0 67 2 67z"/><path fill="#a3b7cc" d="M1 12L9.315 12 7.82 11 0 11 0 18.589 1 19.256zM1 66L1 57.317 0 57.984 0 67 6 67 7.483 66z"/><path fill="#c74343" d="M0 13L0 16.301 24.969 33 30 33z"/><path fill="#a3b7cc" d="M73.876 11L72.38 12 78.917 12 78.917 20.411 80 19.687 80 11zM79 56.214L79 66 74.583 66 76.082 67 80 67 80 56.882z"/><path fill="#c74343" d="M80 59.527L59.183 45 54 45 80 63z"/></svg>