<svg width="100" height="101" viewBox="0 0 100 101" fill="none" xmlns="http://www.w3.org/2000/svg">
<path opacity="0.5" d="M100 50.5775C100 50.5775 90 40.4225 77.2481 39.2984C85.5039 29.4535 85.3876 15.1899 85.3876 15.1899C85.3876 15.1899 71.1628 15.0736 61.3566 23.2907C60.2326 10.5388 50.0775 0.5 50.0775 0.5C50.0775 0.5 39.9225 10.5 38.7984 23.2519C28.9535 14.9961 14.6899 15.1124 14.6899 15.1124C14.6899 15.1124 14.5736 29.3372 22.7907 39.1434C10.0388 40.2674 0 50.4225 0 50.4225C0 50.4225 10 60.5775 22.7519 61.7016C14.4961 71.5465 14.6124 85.8101 14.6124 85.8101C14.6124 85.8101 28.8372 85.9264 38.6434 77.7093C39.7674 90.4612 49.9225 100.5 49.9225 100.5C49.9225 100.5 60.0775 90.5 61.2016 77.7481C71.0465 86.0039 85.3101 85.8876 85.3101 85.8876C85.3101 85.8876 85.4264 71.6628 77.2093 61.8566C89.9612 60.7326 100 50.5775 100 50.5775Z" fill="#B797D7"/>
<path opacity="0.5" d="M50.5426 35.2287C53.4884 42.3217 50.0387 50.5387 50.0387 50.5387C50.0387 50.5387 41.7829 47.2054 38.8372 40.0736C35.8915 32.9806 39.3411 24.7635 39.3411 24.7635C39.3411 24.7635 47.5969 28.0969 50.5426 35.2287Z" fill="#B797D7"/>
<path opacity="0.5" d="M39.5737 39.2985C46.7055 42.2442 50.0389 50.4613 50.0389 50.4613C50.0389 50.4613 41.8606 53.9496 34.7288 51.0039C27.6358 48.0969 24.2637 39.8411 24.2637 39.8411C24.2637 39.8411 32.442 36.3527 39.5737 39.2985Z" fill="#B797D7"/>
<path opacity="0.5" d="M34.7288 49.9574C41.8218 47.0116 50.0389 50.4613 50.0389 50.4613C50.0389 50.4613 46.7055 58.7171 39.5737 61.6628C32.4807 64.6086 24.2637 61.1589 24.2637 61.1589C24.2637 61.1589 27.597 52.9031 34.7288 49.9574Z" fill="#B797D7"/>
<path opacity="0.5" d="M38.7987 60.9264C41.7444 53.7946 49.9615 50.4612 49.9615 50.4612C49.9615 50.4612 53.4498 58.6395 50.5429 65.7713C47.5971 72.8643 39.3413 76.2364 39.3413 76.2364C39.3413 76.2364 35.8529 68.0581 38.7987 60.9264Z" fill="#B797D7"/>
<path opacity="0.5" d="M49.4573 65.7713C46.5116 58.6783 49.9612 50.4612 49.9612 50.4612C49.9612 50.4612 58.217 53.7946 61.1628 60.9264C64.1085 68.0194 60.6589 76.2364 60.6589 76.2364C60.6589 76.2364 52.4031 72.9031 49.4573 65.7713Z" fill="#B797D7"/>
<path opacity="0.5" d="M60.4265 61.7016C53.2948 58.7558 49.9614 50.5387 49.9614 50.5387C49.9614 50.5387 58.1397 47.0504 65.2715 49.9574C72.3645 52.9031 75.7366 61.1589 75.7366 61.1589C75.7366 61.1589 67.5583 64.6473 60.4265 61.7016Z" fill="#B797D7"/>
<path opacity="0.5" d="M65.2715 51.0426C58.1785 53.9884 49.9614 50.5387 49.9614 50.5387C49.9614 50.5387 53.2948 42.2829 60.4265 39.3372C67.5196 36.3915 75.7366 39.8411 75.7366 39.8411C75.7366 39.8411 72.4033 48.0969 65.2715 51.0426Z" fill="#B797D7"/>
<path opacity="0.5" d="M61.2017 40.0736C58.256 47.2054 50.0389 50.5387 50.0389 50.5387C50.0389 50.5387 46.5506 42.3604 49.4575 35.2287C52.4033 28.1356 60.6591 24.7635 60.6591 24.7635C60.6591 24.7635 64.1475 32.9418 61.2017 40.0736Z" fill="#B797D7"/>
<g opacity="0.5">
<path d="M51.6276 15.6551C51.6276 14.7636 50.8911 14.0272 49.9997 14.0272C49.0694 14.0272 48.333 14.7636 48.333 15.6551C48.333 16.5853 49.0694 17.3218 49.9997 17.3218C50.8911 17.3218 51.6276 16.5853 51.6276 15.6551Z" fill="#B797D7"/>
<path d="M50.9689 11.3915C50.9689 10.8489 50.5426 10.4225 49.9999 10.4225C49.4185 10.4225 48.9922 10.8489 48.9922 11.3915C48.9922 11.9342 49.4185 12.3605 49.9999 12.3605C50.5426 12.3605 50.9689 11.9342 50.9689 11.3915Z" fill="#B797D7"/>
<path d="M50.5814 8.17453C50.5814 7.82569 50.3101 7.55438 50 7.55438C49.6512 7.55438 49.3799 7.82569 49.3799 8.17453C49.3799 8.48461 49.6512 8.75592 50 8.75592C50.3101 8.75592 50.5814 8.48461 50.5814 8.17453Z" fill="#B797D7"/>
<path d="M38.1397 17.6706C37.7908 16.8566 36.8218 16.4303 35.9691 16.7791C35.1552 17.128 34.7288 18.0969 35.0776 18.9497C35.4265 19.7636 36.3955 20.19 37.2482 19.8411C38.0621 19.4923 38.4885 18.5233 38.1397 17.6706Z" fill="#B797D7"/>
<path d="M35.8915 13.9884C35.6589 13.4846 35.0775 13.252 34.6124 13.4458C34.0698 13.6396 33.8372 14.221 34.0698 14.7249C34.2636 15.2288 34.845 15.4613 35.3488 15.2675C35.8527 15.0737 36.0853 14.4923 35.8915 13.9884Z" fill="#B797D7"/>
<path d="M34.3023 11.1589C34.1473 10.8489 33.7984 10.6938 33.5271 10.8101C33.217 10.9651 33.062 11.314 33.1783 11.5853C33.3333 11.8954 33.6434 12.0504 33.9534 11.9341C34.2635 11.7791 34.4186 11.469 34.3023 11.1589Z" fill="#B797D7"/>
<path d="M26.434 24.6861C25.7751 24.066 24.7286 24.066 24.1084 24.6861C23.4495 25.345 23.4495 26.3916 24.1084 27.0117C24.7286 27.6706 25.7751 27.6706 26.434 27.0117C27.0542 26.3916 27.0542 25.345 26.434 24.6861Z" fill="#B797D7"/>
<path d="M22.9458 22.128C22.5582 21.7404 21.9381 21.7404 21.5505 22.128C21.1629 22.5156 21.1629 23.1358 21.5505 23.5234C21.9381 23.911 22.5582 23.911 22.9458 23.5234C23.3334 23.1358 23.3334 22.5156 22.9458 22.128Z" fill="#B797D7"/>
<path d="M20.3875 20.1512C20.1549 19.9187 19.7673 19.9187 19.5348 20.1512C19.3022 20.3838 19.3022 20.7326 19.5348 20.9652C19.7673 21.1977 20.1549 21.1977 20.3875 20.9652C20.62 20.7326 20.62 20.3838 20.3875 20.1512Z" fill="#B797D7"/>
<path d="M18.2947 35.6551C17.4808 35.3063 16.5118 35.7326 16.1629 36.5466C15.8141 37.3993 16.2017 38.3683 17.0544 38.7171C17.8684 39.0659 18.8374 38.6783 19.1862 37.8256C19.535 36.9729 19.1474 36.0039 18.2947 35.6551Z" fill="#B797D7"/>
<path d="M14.1085 34.6473C13.6046 34.4147 13.0232 34.6861 12.7907 35.1899C12.5969 35.6938 12.8294 36.2365 13.3333 36.469C13.8372 36.6628 14.4186 36.4303 14.6511 35.9264C14.8449 35.4225 14.6124 34.8411 14.1085 34.6473Z" fill="#B797D7"/>
<path d="M10.9688 33.7558C10.6588 33.6396 10.3099 33.7946 10.1936 34.1047C10.0774 34.376 10.1936 34.7248 10.5037 34.8799C10.8138 34.9961 11.1626 34.8411 11.2789 34.531C11.3952 34.2209 11.2789 33.9109 10.9688 33.7558Z" fill="#B797D7"/>
<path d="M15.0002 48.9109C14.0699 48.9109 13.3335 49.6474 13.3335 50.5388C13.3335 51.4691 14.0699 52.2055 15.0002 52.2055C15.8916 52.2055 16.6281 51.4691 16.6281 50.5388C16.6281 49.6474 15.8916 48.9109 15.0002 48.9109Z" fill="#B797D7"/>
<path d="M10.7363 49.5698C10.1549 49.5698 9.72852 49.9962 9.72852 50.5388C9.72852 51.0815 10.1549 51.5466 10.6975 51.5466C11.2789 51.5466 11.7053 51.0815 11.7053 50.5388C11.7053 49.9962 11.2789 49.5698 10.7363 49.5698Z" fill="#B797D7"/>
<path d="M7.48032 49.9575C7.17024 49.9575 6.89893 50.2288 6.89893 50.5389C6.89893 50.8877 7.17024 51.159 7.48032 51.159C7.82916 51.159 8.10049 50.8877 8.10049 50.5389C8.10049 50.2288 7.82916 49.9575 7.48032 49.9575Z" fill="#B797D7"/>
<path d="M17.0154 62.3993C16.1627 62.7482 15.775 63.7172 16.1239 64.5699C16.4727 65.3838 17.4417 65.8102 18.2557 65.4613C19.1084 65.1125 19.496 64.1435 19.1472 63.2908C18.7983 62.4381 17.8293 62.0505 17.0154 62.3993Z" fill="#B797D7"/>
<path d="M13.2947 64.6474C12.7908 64.8412 12.5583 65.4225 12.7521 65.9264C12.9847 66.4303 13.566 66.7016 14.0699 66.4691C14.5738 66.2753 14.8064 65.6939 14.6126 65.19C14.38 64.6861 13.7986 64.4536 13.2947 64.6474Z" fill="#B797D7"/>
<path d="M10.4651 66.2365C10.1551 66.3915 10.0388 66.7404 10.1551 67.0117C10.2713 67.3218 10.6202 67.4768 10.9303 67.3605C11.2403 67.2055 11.3566 66.8566 11.2403 66.5853C11.1241 66.2753 10.7752 66.1202 10.4651 66.2365Z" fill="#B797D7"/>
<path d="M24.0308 74.1047C23.3719 74.7636 23.3719 75.7714 24.0308 76.4303C24.6897 77.0892 25.6975 77.0892 26.3564 76.4303C27.0153 75.8101 27.0153 74.7636 26.3564 74.1047C25.6975 73.4458 24.6897 73.4458 24.0308 74.1047Z" fill="#B797D7"/>
<path d="M21.4728 77.5931C21.0852 77.9807 21.0852 78.6008 21.4728 78.9884C21.8604 79.376 22.4806 79.376 22.8682 78.9884C23.2558 78.6008 23.2558 77.9807 22.8682 77.5931C22.4806 77.2055 21.8604 77.2055 21.4728 77.5931Z" fill="#B797D7"/>
<path d="M19.4571 80.1512C19.2246 80.3838 19.2246 80.7714 19.4571 81.0039C19.6897 81.2365 20.0773 81.2365 20.3099 81.0039C20.5424 80.7714 20.5424 80.3838 20.3099 80.1512C20.0773 79.9187 19.6897 79.9187 19.4571 80.1512Z" fill="#B797D7"/>
<path d="M34.9999 82.2443C34.651 83.0583 35.0386 84.0273 35.8913 84.3761C36.7053 84.7249 37.6743 84.3373 38.0231 83.4846C38.372 82.6319 37.9844 81.7017 37.1316 81.3528C36.3177 81.004 35.3487 81.3916 34.9999 82.2443Z" fill="#B797D7"/>
<path d="M33.9533 86.4304C33.7595 86.9342 33.992 87.5156 34.4959 87.7094C34.9998 87.942 35.5812 87.7094 35.775 87.2056C36.0075 86.7017 35.775 86.1203 35.2711 85.8877C34.7672 85.6939 34.1858 85.9265 33.9533 86.4304Z" fill="#B797D7"/>
<path d="M33.1009 89.5699C32.9846 89.8799 33.1009 90.2288 33.4109 90.3451C33.721 90.4613 34.0699 90.3063 34.1861 90.035C34.3024 89.7249 34.1861 89.3761 33.8761 89.2598C33.566 89.1048 33.2172 89.2598 33.1009 89.5699Z" fill="#B797D7"/>
<path d="M48.2168 85.5388C48.2168 86.4302 48.9532 87.1666 49.8835 87.1666C50.7749 87.1666 51.5114 86.4302 51.5114 85.5388C51.5114 84.6473 50.7749 83.8721 49.8835 83.8721C48.9532 83.8721 48.2168 84.6473 48.2168 85.5388Z" fill="#B797D7"/>
<path d="M48.876 89.8023C48.876 90.3449 49.3411 90.81 49.8837 90.81C50.4264 90.81 50.8527 90.3449 50.8527 89.8023C50.8527 89.2597 50.4264 88.8333 49.8837 88.8333C49.3411 88.8333 48.876 89.2597 48.876 89.8023Z" fill="#B797D7"/>
<path d="M49.3022 93.0581C49.3022 93.3682 49.5348 93.6395 49.8836 93.6395C50.1937 93.6395 50.465 93.3682 50.465 93.0581C50.465 92.7093 50.1937 92.438 49.8836 92.438C49.5348 92.438 49.3022 92.7093 49.3022 93.0581Z" fill="#B797D7"/>
<path d="M61.744 83.5233C62.0928 84.376 63.0231 84.7636 63.8758 84.4148C64.7285 84.0659 65.1161 83.0969 64.7673 82.283C64.4184 81.4303 63.4494 81.0427 62.6355 81.3915C61.7828 81.7404 61.3952 82.6706 61.744 83.5233Z" fill="#B797D7"/>
<path d="M63.9924 87.2442C64.1862 87.7481 64.7676 87.9807 65.2714 87.7481C65.7753 87.5543 66.0079 86.9729 65.8141 86.469C65.5815 85.9652 65.0001 85.7326 64.4962 85.9264C63.9924 86.159 63.7598 86.7404 63.9924 87.2442Z" fill="#B797D7"/>
<path d="M65.5813 90.0737C65.6976 90.345 66.0465 90.5001 66.3565 90.3838C66.6666 90.2675 66.7829 89.9187 66.6666 89.6086C66.5503 89.2985 66.2015 89.1435 65.8914 89.2985C65.5813 89.4148 65.4651 89.7636 65.5813 90.0737Z" fill="#B797D7"/>
<path d="M73.4106 76.5078C74.0695 77.1667 75.116 77.1667 75.7749 76.5078C76.3951 75.8489 76.3951 74.8024 75.7749 74.1822C75.116 73.5233 74.0695 73.5233 73.4493 74.1822C72.7904 74.8024 72.7904 75.8489 73.4106 76.5078Z" fill="#B797D7"/>
<path d="M76.9377 79.0659C77.3253 79.4535 77.9454 79.4535 78.333 79.0659C78.7206 78.6783 78.7206 78.0582 78.333 77.6706C77.9454 77.283 77.3253 77.283 76.9377 77.6706C76.5501 78.0582 76.5501 78.6783 76.9377 79.0659Z" fill="#B797D7"/>
<path d="M79.4957 81.0815C79.7283 81.314 80.0771 81.314 80.3097 81.0815C80.5422 80.8489 80.5422 80.4613 80.3097 80.2287C80.0771 79.9962 79.7283 79.9962 79.4957 80.2287C79.2631 80.4613 79.2631 80.8489 79.4957 81.0815Z" fill="#B797D7"/>
<path d="M81.5505 65.5387C82.4032 65.8876 83.3722 65.5 83.7211 64.6473C84.0699 63.7946 83.6435 62.8643 82.8296 62.5155C81.9769 62.1667 81.0079 62.5542 80.659 63.407C80.3102 64.2209 80.6978 65.1899 81.5505 65.5387Z" fill="#B797D7"/>
<path d="M85.7753 66.5852C86.2791 66.779 86.8605 66.5465 87.0543 66.0426C87.2481 65.5387 87.0156 64.9573 86.5117 64.7635C86.0078 64.531 85.4264 64.7635 85.2326 65.2674C85.0001 65.7713 85.2714 66.3527 85.7753 66.5852Z" fill="#B797D7"/>
<path d="M88.876 67.4379C89.1861 67.5542 89.5349 67.4379 89.6512 67.1278C89.8062 66.8178 89.6512 66.4689 89.3411 66.3526C89.031 66.2364 88.6822 66.3526 88.5659 66.6627C88.4496 66.9728 88.6047 67.3216 88.876 67.4379Z" fill="#B797D7"/>
<path d="M84.8447 52.283C85.7749 52.283 86.5114 51.5465 86.5114 50.6551C86.5114 49.7636 85.7749 49.0272 84.8447 49.0272C83.9532 49.0272 83.2168 49.7636 83.2168 50.6551C83.2168 51.5465 83.9532 52.283 84.8447 52.283Z" fill="#B797D7"/>
<path d="M89.1474 51.6241C89.69 51.6628 90.1164 51.1977 90.1164 50.6551C90.1164 50.1125 89.69 49.6861 89.1474 49.6861C88.6048 49.6861 88.1396 50.1125 88.1396 50.6551C88.1396 51.1977 88.6048 51.6241 89.1474 51.6241Z" fill="#B797D7"/>
<path d="M92.3641 51.2365C92.7129 51.2365 92.9455 50.9651 92.9455 50.6551C92.9455 50.345 92.7129 50.0737 92.3641 50.0737C92.054 50.0737 91.7827 50.345 91.7827 50.6551C91.7827 50.9651 92.054 51.2365 92.3641 51.2365Z" fill="#B797D7"/>
<path d="M82.8682 38.7945C83.6821 38.4457 84.1085 37.4767 83.7596 36.6628C83.4108 35.81 82.4418 35.4224 81.5891 35.7713C80.7364 36.1201 80.3488 37.0891 80.6976 37.9031C81.0465 38.7558 82.0154 39.1434 82.8682 38.7945Z" fill="#B797D7"/>
<path d="M86.5503 36.5465C87.0541 36.3527 87.2867 35.7713 87.0929 35.2675C86.8991 34.7636 86.3177 34.531 85.8138 34.7248C85.31 34.9574 85.0386 35.5 85.2712 36.0039C85.465 36.5465 86.0464 36.7791 86.5503 36.5465Z" fill="#B797D7"/>
<path d="M89.3797 34.9573C89.6898 34.8411 89.8448 34.4922 89.6898 34.1821C89.5735 33.8721 89.2247 33.7558 88.9146 33.872C88.6433 33.9883 88.4882 34.3372 88.6045 34.6472C88.7208 34.9573 89.0696 35.0736 89.3797 34.9573Z" fill="#B797D7"/>
<path d="M75.8141 27.0892C76.473 26.4691 76.473 25.4226 75.8141 24.7636C75.194 24.1435 74.1475 24.1435 73.4886 24.7636C72.8684 25.4226 72.8684 26.4691 73.4886 27.0892C74.1475 27.7481 75.194 27.7481 75.8141 27.0892Z" fill="#B797D7"/>
<path d="M78.4106 23.6009C78.7982 23.2133 78.7982 22.5932 78.4106 22.2056C78.023 21.818 77.4028 21.818 76.9765 22.2056C76.6276 22.5932 76.6276 23.2133 76.9765 23.6009C77.3641 23.9885 78.023 23.9885 78.4106 23.6009Z" fill="#B797D7"/>
<path d="M80.3878 21.0427C80.6204 20.8102 80.6204 20.4614 80.3878 20.2288C80.1552 19.9962 79.8064 19.9962 79.5738 20.2288C79.3413 20.4614 79.3413 20.8102 79.5738 21.0427C79.8064 21.2753 80.1552 21.2753 80.3878 21.0427Z" fill="#B797D7"/>
<path d="M64.8837 18.9884C65.1937 18.1357 64.8061 17.1667 63.9922 16.8179C63.1395 16.469 62.1705 16.8954 61.8216 17.7094C61.4728 18.5621 61.8604 19.5311 62.7131 19.8799C63.5658 20.2287 64.5348 19.8024 64.8837 18.9884Z" fill="#B797D7"/>
<path d="M65.8912 14.7636C66.1237 14.2597 65.8524 13.6783 65.3485 13.4845C64.8447 13.2907 64.2633 13.5233 64.0695 14.0272C63.8757 14.531 64.1082 15.1124 64.6121 15.3062C65.116 15.5 65.6974 15.2675 65.8912 14.7636Z" fill="#B797D7"/>
<path d="M66.7827 11.6629C66.899 11.3528 66.744 11.0039 66.4339 10.8877C66.1238 10.7326 65.8138 10.8877 65.6587 11.1977C65.5424 11.5078 65.6975 11.8179 66.0075 11.9729C66.2789 12.0892 66.6277 11.9342 66.7827 11.6629Z" fill="#B797D7"/>
</g>
</svg>
