<svg width="100" height="101" viewBox="0 0 100 101" fill="none" xmlns="http://www.w3.org/2000/svg">
<path opacity="0.3" d="M49.9999 9.14308C49.7118 8.79736 49.4093 8.48045 49.0923 8.19234C43.8201 2.87687 36.9489 1.01864 29.2998 0.543274C24.2004 6.24768 20.7432 12.341 20.7432 19.9037C20.7432 20.3646 20.7432 20.8112 20.7432 21.2433C28.5219 21.5026 35.8253 23.8795 41.184 28.6332C41.6161 21.5891 44.814 14.6746 49.9999 9.14308Z" fill="#73AEFC"/>
<path opacity="0.3" d="M49.9999 9.14308C49.7118 8.79736 49.4093 8.48045 49.0923 8.19234C43.8201 2.87687 36.9489 1.01864 29.2998 0.543274C24.2004 6.24768 20.7432 12.341 20.7432 19.9037C20.7432 20.3646 20.7432 20.8112 20.7432 21.2433C28.5219 21.5026 35.8253 23.8795 41.184 28.6332C41.6161 21.5891 44.814 14.6746 49.9999 9.14308Z" fill="#73AEFC"/>
<path opacity="0.3" d="M20.7433 21.2433C20.3111 21.2145 19.8646 21.2001 19.4036 21.2001C11.9706 21.2001 5.74762 24.7437 0 29.7999C0.475367 37.449 2.33363 44.2338 7.69232 49.5925C8.00923 49.9094 8.32613 50.2119 8.64304 50.5C14.3042 45.1845 21.1322 41.7273 28.306 41.2951C23.5955 35.9797 21.0026 28.8492 20.7433 21.2433Z" fill="#73AEFC"/>
<path opacity="0.3" d="M20.7433 21.2433C20.3111 21.2145 19.8646 21.2001 19.4036 21.2001C11.9706 21.2001 5.74762 24.7437 0 29.7999C0.475367 37.449 2.33363 44.2338 7.69232 49.5925C8.00923 49.9094 8.32613 50.2119 8.64304 50.5C14.3042 45.1845 21.1322 41.7273 28.306 41.2951C23.5955 35.9797 21.0026 28.8492 20.7433 21.2433Z" fill="#73AEFC"/>
<path opacity="0.3" d="M49.9999 50.5C43.3447 43.8448 40.7086 36.1093 41.184 28.6331C35.8253 23.8794 28.5219 21.5026 20.7432 21.2433C21.0025 28.8492 23.5954 35.9797 28.3058 41.2952C35.5228 40.863 43.0422 43.5423 49.9999 50.5Z" fill="#73AEFC"/>
<path opacity="0.3" d="M49.9999 50.5C43.3447 43.8448 40.7086 36.1093 41.184 28.6331C35.8253 23.8794 28.5219 21.5026 20.7432 21.2433C21.0025 28.8492 23.5954 35.9797 28.3058 41.2952C35.5228 40.863 43.0422 43.5423 49.9999 50.5Z" fill="#73AEFC"/>
<path opacity="0.3" d="M49.9999 50.5C43.3447 43.8448 40.7086 36.1093 41.184 28.6331C35.8253 23.8794 28.5219 21.5026 20.7432 21.2433C21.0025 28.8492 23.5954 35.9797 28.3058 41.2952C35.5228 40.863 43.0422 43.5423 49.9999 50.5Z" fill="#73AEFC"/>
<path opacity="0.3" d="M8.64328 50.5C8.32637 50.7881 8.00947 51.0906 7.69255 51.4075C2.4203 56.6798 0.518824 63.5942 0.043457 71.2001C5.74786 76.2995 11.8844 79.7999 19.4039 79.7999C19.8648 79.7999 20.3114 79.7855 20.7435 79.7567C21.0028 71.978 23.3797 64.6746 28.1333 59.3159C21.0893 58.8838 14.1748 55.6858 8.64328 50.5Z" fill="#73AEFC"/>
<path opacity="0.3" d="M8.64328 50.5C8.32637 50.7881 8.00947 51.0906 7.69255 51.4075C2.4203 56.6798 0.518824 63.5942 0.043457 71.2001C5.74786 76.2995 11.8844 79.7999 19.4039 79.7999C19.8648 79.7999 20.3114 79.7855 20.7435 79.7567C21.0028 71.978 23.3797 64.6746 28.1333 59.3159C21.0893 58.8838 14.1748 55.6858 8.64328 50.5Z" fill="#73AEFC"/>
<path opacity="0.3" d="M50 50.5C40.5791 50.5 33.2757 46.9131 28.306 41.2952C21.1323 41.7273 14.3043 45.1845 8.64307 50.5C14.1746 55.6858 21.089 58.8838 28.1331 59.3159C32.93 53.9572 40.147 50.5 50 50.5Z" fill="#73AEFC"/>
<path opacity="0.3" d="M50 50.5C40.5791 50.5 33.2757 46.9131 28.306 41.2952C21.1323 41.7273 14.3043 45.1845 8.64307 50.5C14.1746 55.6858 21.089 58.8838 28.1331 59.3159C32.93 53.9572 40.147 50.5 50 50.5Z" fill="#73AEFC"/>
<path opacity="0.3" d="M50 50.5C40.5791 50.5 33.2757 46.9131 28.306 41.2952C21.1323 41.7273 14.3043 45.1845 8.64307 50.5C14.1746 55.6858 21.089 58.8838 28.1331 59.3159C32.93 53.9572 40.147 50.5 50 50.5Z" fill="#73AEFC"/>
<path opacity="0.3" d="M28.3062 41.2952C33.2759 46.9132 40.5793 50.5 50.0002 50.5C43.0425 43.5424 35.5231 40.863 28.3062 41.2952Z" fill="#73AEFC"/>
<path opacity="0.3" d="M28.3062 41.2952C33.2759 46.9132 40.5793 50.5 50.0002 50.5C43.0425 43.5424 35.5231 40.863 28.3062 41.2952Z" fill="#73AEFC"/>
<path opacity="0.3" d="M28.3062 41.2952C33.2759 46.9132 40.5793 50.5 50.0002 50.5C43.0425 43.5424 35.5231 40.863 28.3062 41.2952Z" fill="#73AEFC"/>
<path opacity="0.3" d="M20.7432 79.7567C20.7432 80.1888 20.7432 80.6354 20.7432 81.0964C20.7432 88.5726 24.2436 94.7524 29.343 100.5C36.9489 100.025 43.7337 98.1664 49.0923 92.8077C49.4093 92.5196 49.7118 92.2027 49.9999 91.857C44.6844 86.1958 41.2272 79.3678 40.795 72.194C35.4796 76.9045 28.349 79.4974 20.7432 79.7567Z" fill="#73AEFC"/>
<path opacity="0.3" d="M20.7432 79.7567C20.7432 80.1888 20.7432 80.6354 20.7432 81.0964C20.7432 88.5726 24.2436 94.7524 29.343 100.5C36.9489 100.025 43.7337 98.1664 49.0923 92.8077C49.4093 92.5196 49.7118 92.2027 49.9999 91.857C44.6844 86.1958 41.2272 79.3678 40.795 72.194C35.4796 76.9045 28.349 79.4974 20.7432 79.7567Z" fill="#73AEFC"/>
<path opacity="0.3" d="M49.9999 50.5C43.3447 57.1551 35.6092 59.7913 28.133 59.3159C23.3793 64.6746 21.0025 71.978 20.7432 79.7567C28.349 79.4974 35.4796 76.9045 40.795 72.194C40.3629 64.9771 43.0422 57.4576 49.9999 50.5Z" fill="#73AEFC"/>
<path opacity="0.3" d="M49.9999 50.5C43.3447 57.1551 35.6092 59.7913 28.133 59.3159C23.3793 64.6746 21.0025 71.978 20.7432 79.7567C28.349 79.4974 35.4796 76.9045 40.795 72.194C40.3629 64.9771 43.0422 57.4576 49.9999 50.5Z" fill="#73AEFC"/>
<path opacity="0.3" d="M49.9999 50.5C43.3447 57.1551 35.6092 59.7913 28.133 59.3159C23.3793 64.6746 21.0025 71.978 20.7432 79.7567C28.349 79.4974 35.4796 76.9045 40.795 72.194C40.3629 64.9771 43.0422 57.4576 49.9999 50.5Z" fill="#73AEFC"/>
<path opacity="0.3" d="M28.1333 59.3159C35.6095 59.7913 43.3451 57.1551 50.0002 50.5C40.1471 50.5 32.9302 53.9572 28.1333 59.3159Z" fill="#73AEFC"/>
<path opacity="0.3" d="M28.1333 59.3159C35.6095 59.7913 43.3451 57.1551 50.0002 50.5C40.1471 50.5 32.9302 53.9572 28.1333 59.3159Z" fill="#73AEFC"/>
<path opacity="0.3" d="M28.1333 59.3159C35.6095 59.7913 43.3451 57.1551 50.0002 50.5C40.1471 50.5 32.9302 53.9572 28.1333 59.3159Z" fill="#73AEFC"/>
<path opacity="0.3" d="M50 91.857C50.2881 92.2027 50.5906 92.5197 50.9075 92.8078C56.1798 98.1232 63.0942 99.9815 70.7433 100.457C75.7995 94.7524 79.2999 88.6591 79.2999 81.0964C79.2999 80.6355 79.2855 80.1889 79.2567 79.7568C71.478 79.4975 64.1746 77.1206 58.8159 72.3669C58.427 79.4542 55.1858 86.3255 50 91.857Z" fill="#73AEFC"/>
<path opacity="0.3" d="M50 91.857C50.2881 92.2027 50.5906 92.5197 50.9075 92.8078C56.1798 98.1232 63.0942 99.9815 70.7433 100.457C75.7995 94.7524 79.2999 88.6591 79.2999 81.0964C79.2999 80.6355 79.2855 80.1889 79.2567 79.7568C71.478 79.4975 64.1746 77.1206 58.8159 72.3669C58.427 79.4542 55.1858 86.3255 50 91.857Z" fill="#73AEFC"/>
<path opacity="0.3" d="M49.9998 50.5C49.9998 59.9209 46.4129 67.2243 40.7949 72.194C41.2271 79.3678 44.6843 86.1958 49.9998 91.857C55.1856 86.3254 58.4267 79.4542 58.8157 72.3669C53.457 67.57 49.9998 60.3531 49.9998 50.5Z" fill="#73AEFC"/>
<path opacity="0.3" d="M49.9998 50.5C49.9998 59.9209 46.4129 67.2243 40.7949 72.194C41.2271 79.3678 44.6843 86.1958 49.9998 91.857C55.1856 86.3254 58.4267 79.4542 58.8157 72.3669C53.457 67.57 49.9998 60.3531 49.9998 50.5Z" fill="#73AEFC"/>
<path opacity="0.3" d="M49.9998 50.5C49.9998 59.9209 46.4129 67.2243 40.7949 72.194C41.2271 79.3678 44.6843 86.1958 49.9998 91.857C55.1856 86.3254 58.4267 79.4542 58.8157 72.3669C53.457 67.57 49.9998 60.3531 49.9998 50.5Z" fill="#73AEFC"/>
<path opacity="0.3" d="M40.7951 72.194C46.4131 67.2243 50 59.9209 50 50.5C43.0423 57.4576 40.363 64.9771 40.7951 72.194Z" fill="#73AEFC"/>
<path opacity="0.3" d="M40.7951 72.194C46.4131 67.2243 50 59.9209 50 50.5C43.0423 57.4576 40.363 64.9771 40.7951 72.194Z" fill="#73AEFC"/>
<path opacity="0.3" d="M40.7951 72.194C46.4131 67.2243 50 59.9209 50 50.5C43.0423 57.4576 40.363 64.9771 40.7951 72.194Z" fill="#73AEFC"/>
<path opacity="0.3" d="M99.9998 71.2001C99.5244 63.551 97.6662 56.7662 92.3075 51.4075C92.0194 51.0906 91.7025 50.7881 91.3568 50.5C85.6956 55.8155 78.8676 59.2727 71.6938 59.7048C76.4043 65.0203 78.9972 72.1508 79.2565 79.7567C79.6887 79.7855 80.1352 79.7999 80.5962 79.7999C88.0292 79.7999 94.2522 76.2563 99.9998 71.2001Z" fill="#73AEFC"/>
<path opacity="0.3" d="M99.9998 71.2001C99.5244 63.551 97.6662 56.7662 92.3075 51.4075C92.0194 51.0906 91.7025 50.7881 91.3568 50.5C85.6956 55.8155 78.8676 59.2727 71.6938 59.7048C76.4043 65.0203 78.9972 72.1508 79.2565 79.7567C79.6887 79.7855 80.1352 79.7999 80.5962 79.7999C88.0292 79.7999 94.2522 76.2563 99.9998 71.2001Z" fill="#73AEFC"/>
<path opacity="0.3" d="M50 50.5C56.6551 57.1551 59.2913 64.8907 58.8159 72.3669C64.1746 77.1206 71.478 79.4974 79.2567 79.7567C78.9974 72.1508 76.4045 65.0203 71.694 59.7048C64.5203 60.137 56.9576 57.4576 50 50.5Z" fill="#73AEFC"/>
<path opacity="0.3" d="M50 50.5C56.6551 57.1551 59.2913 64.8907 58.8159 72.3669C64.1746 77.1206 71.478 79.4974 79.2567 79.7567C78.9974 72.1508 76.4045 65.0203 71.694 59.7048C64.5203 60.137 56.9576 57.4576 50 50.5Z" fill="#73AEFC"/>
<path opacity="0.3" d="M50 50.5C56.6551 57.1551 59.2913 64.8907 58.8159 72.3669C64.1746 77.1206 71.478 79.4974 79.2567 79.7567C78.9974 72.1508 76.4045 65.0203 71.694 59.7048C64.5203 60.137 56.9576 57.4576 50 50.5Z" fill="#73AEFC"/>
<path opacity="0.3" d="M58.8159 72.3669C59.2913 64.8907 56.6551 57.1551 50 50.5C50 60.3531 53.4572 67.57 58.8159 72.3669Z" fill="#73AEFC"/>
<path opacity="0.3" d="M58.8159 72.3669C59.2913 64.8907 56.6551 57.1551 50 50.5C50 60.3531 53.4572 67.57 58.8159 72.3669Z" fill="#73AEFC"/>
<path opacity="0.3" d="M58.8159 72.3669C59.2913 64.8907 56.6551 57.1551 50 50.5C50 60.3531 53.4572 67.57 58.8159 72.3669Z" fill="#73AEFC"/>
<path opacity="0.3" d="M79.2567 21.2433C79.2855 20.8111 79.2999 20.3646 79.2999 19.9036C79.2999 12.4274 75.7563 6.24762 70.7001 0.5C63.051 0.975367 56.2662 2.83362 50.9075 8.1923C50.5906 8.4804 50.2881 8.79732 50 9.14304C55.3155 14.8042 58.7727 21.6322 59.2048 28.806C64.5203 24.0955 71.6508 21.5026 79.2567 21.2433Z" fill="#73AEFC"/>
<path opacity="0.3" d="M79.2567 21.2433C79.2855 20.8111 79.2999 20.3646 79.2999 19.9036C79.2999 12.4274 75.7563 6.24762 70.7001 0.5C63.051 0.975367 56.2662 2.83362 50.9075 8.1923C50.5906 8.4804 50.2881 8.79732 50 9.14304C55.3155 14.8042 58.7727 21.6322 59.2048 28.806C64.5203 24.0955 71.6508 21.5026 79.2567 21.2433Z" fill="#73AEFC"/>
<path opacity="0.3" d="M50 50.5C50 41.0791 53.5868 33.7757 59.2048 28.806C58.7727 21.6323 55.3155 14.8043 50 9.14307C44.8142 14.6746 41.6162 21.5891 41.1841 28.6331C46.586 33.43 50 40.647 50 50.5Z" fill="#73AEFC"/>
<path opacity="0.3" d="M50 50.5C50 41.0791 53.5868 33.7757 59.2048 28.806C58.7727 21.6323 55.3155 14.8043 50 9.14307C44.8142 14.6746 41.6162 21.5891 41.1841 28.6331C46.586 33.43 50 40.647 50 50.5Z" fill="#73AEFC"/>
<path opacity="0.3" d="M50 50.5C50 41.0791 53.5868 33.7757 59.2048 28.806C58.7727 21.6323 55.3155 14.8043 50 9.14307C44.8142 14.6746 41.6162 21.5891 41.1841 28.6331C46.586 33.43 50 40.647 50 50.5Z" fill="#73AEFC"/>
<path opacity="0.3" d="M41.184 28.6331C40.7086 36.1093 43.3447 43.8449 49.9999 50.5C49.9999 40.6469 46.5859 33.43 41.184 28.6331Z" fill="#73AEFC"/>
<path opacity="0.3" d="M41.184 28.6331C40.7086 36.1093 43.3447 43.8449 49.9999 50.5C49.9999 40.6469 46.5859 33.43 41.184 28.6331Z" fill="#73AEFC"/>
<path opacity="0.3" d="M41.184 28.6331C40.7086 36.1093 43.3447 43.8449 49.9999 50.5C49.9999 40.6469 46.5859 33.43 41.184 28.6331Z" fill="#73AEFC"/>
<path opacity="0.3" d="M91.3568 50.5C91.7025 50.2119 92.0194 49.9094 92.3075 49.5925C97.623 44.3202 99.4812 37.4058 99.9566 29.7567C94.2522 24.7005 88.1588 21.2001 80.5962 21.2001C80.1352 21.2001 79.6887 21.2145 79.2565 21.2433C78.9972 29.022 76.6204 36.3254 71.8667 41.6841C78.954 42.073 85.8252 45.3142 91.3568 50.5Z" fill="#73AEFC"/>
<path opacity="0.3" d="M91.3568 50.5C91.7025 50.2119 92.0194 49.9094 92.3075 49.5925C97.623 44.3202 99.4812 37.4058 99.9566 29.7567C94.2522 24.7005 88.1588 21.2001 80.5962 21.2001C80.1352 21.2001 79.6887 21.2145 79.2565 21.2433C78.9972 29.022 76.6204 36.3254 71.8667 41.6841C78.954 42.073 85.8252 45.3142 91.3568 50.5Z" fill="#73AEFC"/>
<path opacity="0.3" d="M50 50.5C56.6551 43.8448 64.3907 41.2087 71.8669 41.6841C76.6206 36.3254 78.9974 29.022 79.2567 21.2433C71.6508 21.5026 64.5203 24.0955 59.2048 28.8059C59.637 36.0229 56.9576 43.5423 50 50.5Z" fill="#73AEFC"/>
<path opacity="0.3" d="M50 50.5C56.6551 43.8448 64.3907 41.2087 71.8669 41.6841C76.6206 36.3254 78.9974 29.022 79.2567 21.2433C71.6508 21.5026 64.5203 24.0955 59.2048 28.8059C59.637 36.0229 56.9576 43.5423 50 50.5Z" fill="#73AEFC"/>
<path opacity="0.3" d="M50 50.5C56.6551 43.8448 64.3907 41.2087 71.8669 41.6841C76.6206 36.3254 78.9974 29.022 79.2567 21.2433C71.6508 21.5026 64.5203 24.0955 59.2048 28.8059C59.637 36.0229 56.9576 43.5423 50 50.5Z" fill="#73AEFC"/>
<path opacity="0.3" d="M59.2048 28.806C53.5869 33.7757 50 41.0791 50 50.5C56.9576 43.5424 59.637 36.0229 59.2048 28.806Z" fill="#73AEFC"/>
<path opacity="0.3" d="M59.2048 28.806C53.5869 33.7757 50 41.0791 50 50.5C56.9576 43.5424 59.637 36.0229 59.2048 28.806Z" fill="#73AEFC"/>
<path opacity="0.3" d="M59.2048 28.806C53.5869 33.7757 50 41.0791 50 50.5C56.9576 43.5424 59.637 36.0229 59.2048 28.806Z" fill="#73AEFC"/>
<path opacity="0.3" d="M50 50.5C59.4209 50.5 66.7675 54.0869 71.694 59.7048C78.8678 59.2727 85.6958 55.8155 91.357 50.5C85.8254 45.3142 78.9542 42.073 71.8669 41.6841C67.07 47.0428 59.8531 50.5 50 50.5Z" fill="#73AEFC"/>
<path opacity="0.3" d="M50 50.5C59.4209 50.5 66.7675 54.0869 71.694 59.7048C78.8678 59.2727 85.6958 55.8155 91.357 50.5C85.8254 45.3142 78.9542 42.073 71.8669 41.6841C67.07 47.0428 59.8531 50.5 50 50.5Z" fill="#73AEFC"/>
<path opacity="0.3" d="M50 50.5C59.4209 50.5 66.7675 54.0869 71.694 59.7048C78.8678 59.2727 85.6958 55.8155 91.357 50.5C85.8254 45.3142 78.9542 42.073 71.8669 41.6841C67.07 47.0428 59.8531 50.5 50 50.5Z" fill="#73AEFC"/>
<path opacity="0.3" d="M71.8669 41.6841C64.3907 41.2087 56.6551 43.8448 50 50.5C59.8531 50.5 67.07 47.0428 71.8669 41.6841Z" fill="#73AEFC"/>
<path opacity="0.3" d="M71.8669 41.6841C64.3907 41.2087 56.6551 43.8448 50 50.5C59.8531 50.5 67.07 47.0428 71.8669 41.6841Z" fill="#73AEFC"/>
<path opacity="0.3" d="M71.8669 41.6841C64.3907 41.2087 56.6551 43.8448 50 50.5C59.8531 50.5 67.07 47.0428 71.8669 41.6841Z" fill="#73AEFC"/>
<path opacity="0.3" d="M50 50.5C56.9576 57.4576 64.5203 60.137 71.694 59.7048C66.7675 54.0869 59.4209 50.5 50 50.5Z" fill="#73AEFC"/>
<path opacity="0.3" d="M50 50.5C56.9576 57.4576 64.5203 60.137 71.694 59.7048C66.7675 54.0869 59.4209 50.5 50 50.5Z" fill="#73AEFC"/>
<path opacity="0.3" d="M50 50.5C56.9576 57.4576 64.5203 60.137 71.694 59.7048C66.7675 54.0869 59.4209 50.5 50 50.5Z" fill="#73AEFC"/>
<path opacity="0.3" d="M5.83398 31.7445C15.9463 43.1966 30.8124 50.4999 49.9999 50.4999C35.8253 36.3254 20.5272 30.8802 5.83398 31.7445Z" fill="#73AEFC"/>
<path opacity="0.3" d="M5.53125 68.4775C20.743 69.4282 36.4301 64.0695 49.9997 50.4999C29.9911 50.4999 15.2979 57.5008 5.53125 68.4775Z" fill="#73AEFC"/>
<path opacity="0.3" d="M31.2446 94.6659C42.6966 84.5535 50 69.6875 50 50.4999C35.8254 64.6745 30.4235 79.9727 31.2446 94.6659Z" fill="#73AEFC"/>
<path opacity="0.3" d="M67.9775 94.9684C68.9283 79.7566 63.5696 64.0695 50 50.4999C50 70.5518 57.0009 85.2018 67.9775 94.9684Z" fill="#73AEFC"/>
<path opacity="0.3" d="M32.0223 6.03149C31.1148 21.2432 36.4303 36.9304 49.9998 50.5C49.9998 30.4481 43.0422 15.7981 32.0223 6.03149Z" fill="#73AEFC"/>
<path opacity="0.3" d="M68.7554 6.33398C57.3034 16.4463 50 31.3124 50 50.4999C64.1746 36.3253 69.6197 21.0272 68.7554 6.33398Z" fill="#73AEFC"/>
<path opacity="0.3" d="M94.4685 32.5224C79.2567 31.5717 63.5696 36.9304 50 50.4999C70.0519 50.4999 84.7018 43.4991 94.4685 32.5224Z" fill="#73AEFC"/>
<path opacity="0.3" d="M50 50.4999C64.1746 64.6745 79.516 70.1197 94.1659 69.2553C84.0968 57.8033 69.1876 50.4999 50 50.4999Z" fill="#73AEFC"/>
<path opacity="0.5" d="M51.988 4.3894C51.988 3.2658 51.1237 2.35828 50.0001 2.35828C48.8765 2.35828 48.0122 3.2658 48.0122 4.3894C48.0122 5.51299 48.8765 6.37731 50.0001 6.37731C51.1237 6.37731 51.988 5.51299 51.988 4.3894Z" fill="#73AEFC"/>
<path opacity="0.5" d="M18.5823 16.5761C17.8045 15.755 16.5512 15.755 15.7733 16.5761C14.9955 17.354 14.9955 18.6072 15.7733 19.3851C16.5512 20.1629 17.8045 20.2062 18.5823 19.3851C19.4034 18.6072 19.4034 17.354 18.5823 16.5761Z" fill="#73AEFC"/>
<path opacity="0.5" d="M3.58702 48.7714C2.46343 48.7714 1.59912 49.6789 1.59912 50.8025C1.59912 51.9261 2.46343 52.7904 3.58702 52.7904C4.71062 52.7904 5.57493 51.9261 5.57493 50.8025C5.57493 49.6789 4.71062 48.7714 3.58702 48.7714Z" fill="#73AEFC"/>
<path opacity="0.5" d="M15.7733 82.1767C14.9955 82.9978 14.9955 84.2511 15.7733 85.0289C16.5512 85.8068 17.8045 85.8068 18.5823 85.0289C19.4034 84.2511 19.4034 82.9978 18.5823 82.1767C17.8045 81.3989 16.5512 81.3989 15.7733 82.1767Z" fill="#73AEFC"/>
<path opacity="0.5" d="M48.0122 97.2157C48.0122 98.3393 48.8765 99.2036 50.0001 99.2036C51.1237 99.2036 51.988 98.3393 52.0312 97.2157C52.0312 96.0921 51.1237 95.1846 50.0001 95.1846C48.8765 95.1846 48.0122 96.0921 48.0122 97.2157Z" fill="#73AEFC"/>
<path opacity="0.5" d="M81.4176 85.0289C82.1954 85.8068 83.4487 85.8068 84.2266 85.0289C85.0044 84.2511 85.0044 82.9978 84.2266 82.1767C83.4487 81.3989 82.1954 81.3989 81.4176 82.1767C80.5965 82.9978 80.5965 84.2511 81.4176 85.0289Z" fill="#73AEFC"/>
<path opacity="0.5" d="M96.4132 52.7904C97.5368 52.7904 98.4011 51.9261 98.4011 50.8025C98.4443 49.6789 97.5368 48.7714 96.4132 48.7714C95.2896 48.7714 94.4253 49.6789 94.4253 50.8025C94.4253 51.9261 95.2896 52.7904 96.4132 52.7904Z" fill="#73AEFC"/>
<path opacity="0.5" d="M84.2266 19.3851C85.0044 18.6072 85.0044 17.354 84.2266 16.5761C83.4487 15.755 82.1954 15.755 81.4176 16.5761C80.5965 17.354 80.5965 18.6072 81.4176 19.3851C82.1954 20.1629 83.4487 20.1629 84.2266 19.3851Z" fill="#73AEFC"/>
</svg>
