<svg width="100" height="101" viewBox="0 0 100 101" fill="none" xmlns="http://www.w3.org/2000/svg">
<path opacity="0.5" d="M64.1087 29.1434C64.1087 42.9419 49.8064 50.5 49.8064 50.5C49.8064 50.5 35.4653 42.9419 35.4653 29.1434C35.4653 15.3062 49.8064 0.5 49.8064 0.5C49.8064 0.5 64.1087 15.3062 64.1087 29.1434Z" fill="#FF7EAA"/>
<path opacity="0.5" d="M51.5505 24.9186C58.4497 36.8954 49.845 50.6163 49.845 50.6163C49.845 50.6163 33.6435 51.1977 26.7443 39.2597C19.845 27.283 24.845 7.28296 24.845 7.28296C24.845 7.28296 44.6512 12.9806 51.5505 24.9186Z" fill="#FF7EAA"/>
<path opacity="0.5" d="M38.5661 27.593C50.5041 34.4922 49.8839 50.655 49.8839 50.655C49.8839 50.655 36.2018 59.2984 24.225 52.3992C12.287 45.5 6.58936 25.655 6.58936 25.655C6.58936 25.655 26.5894 20.6938 38.5661 27.593Z" fill="#FF7EAA"/>
<path opacity="0.5" d="M28.6434 36.3915C42.4419 36.3915 50 50.6938 50 50.6938C50 50.6938 42.4419 65.0349 28.6434 65.0349C14.8062 65.0349 0 50.6938 0 50.6938C0 50.6938 14.8062 36.3915 28.6434 36.3915Z" fill="#FF7EAA"/>
<path opacity="0.5" d="M24.4184 48.9496C36.3951 42.0504 50.116 50.6551 50.116 50.6551C50.116 50.6551 50.6974 66.8566 38.7595 73.7558C26.7827 80.6551 6.78271 75.6551 6.78271 75.6551C6.78271 75.6551 12.4804 55.8489 24.4184 48.9496Z" fill="#FF7EAA"/>
<path opacity="0.5" d="M27.0929 61.9342C33.9921 49.9962 50.1937 50.6163 50.1937 50.6163C50.1937 50.6163 58.7983 64.2985 51.8991 76.2752C44.9999 88.2132 25.1549 93.9109 25.1549 93.9109C25.1549 93.9109 20.1937 73.9109 27.0929 61.9342Z" fill="#FF7EAA"/>
<path opacity="0.5" d="M35.8916 71.8566C35.8916 58.0581 50.1939 50.5 50.1939 50.5C50.1939 50.5 64.535 58.0581 64.535 71.8566C64.4963 85.6938 50.1939 100.5 50.1939 100.5C50.1939 100.5 35.8916 85.6938 35.8916 71.8566Z" fill="#FF7EAA"/>
<path opacity="0.5" d="M48.4496 76.0814C41.5503 64.1047 50.155 50.3837 50.155 50.3837C50.155 50.3837 66.3565 49.8023 73.2558 61.7403C80.155 73.7171 75.155 93.7171 75.155 93.7171C75.155 93.7171 55.3488 88.0194 48.4496 76.0814Z" fill="#FF7EAA"/>
<path opacity="0.5" d="M61.4342 73.407C49.4962 66.5077 50.1163 50.3062 50.1163 50.3062C50.1163 50.3062 63.7985 41.7015 75.7752 48.6007C87.7132 55.5 93.4109 75.3449 93.4109 75.3449C93.4109 75.3449 73.4109 80.3062 61.4342 73.407Z" fill="#FF7EAA"/>
<path opacity="0.5" d="M71.3566 64.6085C57.5581 64.6085 50 50.3062 50 50.3062C50 50.3062 57.5581 35.9651 71.3566 35.9651C85.1938 35.9651 100 50.3062 100 50.3062C100 50.3062 85.1938 64.6085 71.3566 64.6085Z" fill="#FF7EAA"/>
<path opacity="0.5" d="M75.5812 52.0503C63.6044 58.9496 49.8835 50.3449 49.8835 50.3449C49.8835 50.3449 49.3021 34.1434 61.2401 27.2441C73.2168 20.3449 93.2168 25.3449 93.2168 25.3449C93.2168 25.3449 87.5191 45.1511 75.5812 52.0503Z" fill="#FF7EAA"/>
<path opacity="0.5" d="M72.9071 39.0659C66.0079 51.0039 49.8064 50.3837 49.8064 50.3837C49.8064 50.3837 41.2017 36.7016 48.1009 24.7248C55.0002 12.7868 74.8451 7.08917 74.8451 7.08917C74.8451 7.08917 79.8064 27.0892 72.9071 39.0659Z" fill="#FF7EAA"/>
<g opacity="0.5">
<path d="M40.7365 7.16663C40.7365 8.83329 39.3799 10.1899 37.7132 10.1899C36.0465 10.1899 34.6899 8.83329 34.6899 7.16663C34.6899 5.49996 36.0465 4.14337 37.7132 4.14337C39.3799 4.14337 40.7365 5.49996 40.7365 7.16663Z" fill="#FF7EAA"/>
<path d="M20.4653 17.4379C21.3181 18.872 20.8142 20.7325 19.3801 21.5852C17.9072 22.3992 16.0855 21.8953 15.2328 20.4612C14.3801 19.0271 14.884 17.1666 16.3568 16.3527C17.7909 15.4999 19.6514 16.0038 20.4653 17.4379Z" fill="#FF7EAA"/>
<path d="M8.06196 36.4689C9.53482 37.3216 9.99994 39.1821 9.18599 40.6162C8.33327 42.0503 6.51157 42.5542 5.0387 41.7015C3.60459 40.8875 3.10072 39.0271 3.95343 37.5929C4.76738 36.1588 6.62785 35.655 8.06196 36.4689Z" fill="#FF7EAA"/>
<path d="M6.86066 59.1821C8.52733 59.1821 9.88391 60.5387 9.88391 62.2054C9.88391 63.8721 8.52733 65.2286 6.86066 65.2286C5.19399 65.2286 3.8374 63.8721 3.8374 62.2054C3.8374 60.5387 5.19399 59.1821 6.86066 59.1821Z" fill="#FF7EAA"/>
<path d="M17.132 79.4147C18.6048 78.6008 20.4265 79.1046 21.2792 80.5387C22.0932 81.9729 21.6281 83.8333 20.1552 84.6473C18.7211 85.5 16.8606 84.9961 16.0467 83.562C15.194 82.1279 15.6979 80.2674 17.132 79.4147Z" fill="#FF7EAA"/>
<path d="M36.2015 91.8178C37.0154 90.3837 38.8759 89.8798 40.31 90.7325C41.7441 91.5465 42.248 93.407 41.434 94.8411C40.5813 96.3139 38.7209 96.779 37.2867 95.9651C35.8526 95.1124 35.3488 93.2907 36.2015 91.8178Z" fill="#FF7EAA"/>
<path d="M58.876 93.058C58.876 91.3526 60.2326 90.0348 61.8992 90.0348C63.5659 90.0348 64.9225 91.3526 64.9225 93.058C64.9225 94.7247 63.5659 96.0813 61.8992 96.0813C60.2326 96.0813 58.876 94.7247 58.876 93.058Z" fill="#FF7EAA"/>
<path d="M79.1473 82.748C78.2946 81.3139 78.7984 79.4534 80.2325 78.6395C81.6667 77.7868 83.5271 78.2906 84.3798 79.7247C85.1938 81.1588 84.6899 83.0193 83.2558 83.872C81.8217 84.686 79.9612 84.1821 79.1473 82.748Z" fill="#FF7EAA"/>
<path d="M91.5118 63.717C90.0777 62.8643 89.5739 61.0426 90.4266 59.5697C91.2405 58.1356 93.101 57.6317 94.5351 58.4844C96.008 59.2984 96.5118 61.1589 95.6591 62.593C94.8064 64.0658 92.9847 64.5309 91.5118 63.717Z" fill="#FF7EAA"/>
<path d="M92.7518 41.0426C91.0851 41.0426 89.7285 39.686 89.7285 38.0193C89.7285 36.3139 91.0851 34.9573 92.7518 34.996C94.4184 34.9573 95.775 36.3139 95.775 38.0193C95.775 39.686 94.4184 41.0426 92.7518 41.0426Z" fill="#FF7EAA"/>
<path d="M82.4418 20.7713C81.0077 21.5852 79.1473 21.1201 78.3333 19.6472C77.4806 18.2131 77.9845 16.3526 79.4186 15.5387C80.8914 14.686 82.7132 15.1899 83.5659 16.624C84.3798 18.0968 83.9147 19.9185 82.4418 20.7713Z" fill="#FF7EAA"/>
<path d="M63.4111 8.36815C62.5972 9.80226 60.7367 10.3061 59.3026 9.49219C57.8298 8.63947 57.3259 6.77901 58.1786 5.3449C58.9925 3.91079 60.853 3.40691 62.3259 4.22087C63.76 5.07358 64.2639 6.93405 63.4111 8.36815Z" fill="#FF7EAA"/>
</g>
</svg>
