<svg width="50" height="50" viewBox="0 0 50 50" fill="none" xmlns="http://www.w3.org/2000/svg">
<path d="M38.7261 30.2452C40.8895 31.2746 42.2597 32.8187 42.9088 34.5344C44.7117 39.1668 41.5867 45.0246 36.0097 45.0246C31.1059 45.0246 28.9184 41.1031 25.3126 41.0785C25.1203 41.0785 24.928 41.0867 24.7357 41.1031C25.1203 40.7109 25.553 40.2697 26.0097 39.7795C28.9665 36.6178 31.5867 42.157 33.9184 39.1178C35.2165 37.4511 31.8992 34.1178 27.8607 36.054C24.1107 37.8678 24.0626 40.956 18.5338 44.1178C17.428 44.6325 16.154 45.0246 14.6395 45.0246C6.6107 45.0246 2.2357 34.2893 12.7405 30.0246C15.9617 28.7256 18.3895 27.9413 20.4569 26.5442C23.9905 24.1913 25.3126 20.2207 25.3126 20.2207C26.2742 22.4511 28.4617 25.3923 31.0338 27.1815C28.7982 27.9658 26.4905 30.0491 22.6444 33.9462C19.5194 37.108 16.2982 31.2011 14.1828 34.1178C12.9569 35.8334 15.7694 39.1668 20.2165 37.304C23.5819 35.8825 27.428 29.8285 33.9905 29.4364C35.7934 29.3384 37.5242 29.6815 38.7261 30.2452Z" fill="url(#paint0_linear_80_938)"/>
<path d="M40.4809 20.3432C39.6876 23.7991 32.0434 23.7746 28.3895 19.2403C26.2982 16.6668 25.9857 14.0687 25.4809 14.0687C25.0241 14.0687 24.2309 16.9854 22.5962 19.2403C19.1828 23.9707 11.2741 23.7991 10.4809 20.3432C9.92798 17.9413 12.0434 17.5001 15.6251 15.956C16.7789 15.4658 18.4136 14.8775 19.8078 14.0932C25.3126 10.9315 22.4761 9.75499 21.6828 7.7942C21.1539 6.5442 20.7934 5.34322 21.2261 3.70107C21.827 1.25009 23.6299 0.0981262 25.3847 0.0491066C27.2116 8.69595e-05 29.1828 1.15205 29.7597 3.67656C30.1924 5.58832 29.8078 6.51969 29.303 7.7942C28.4616 9.90205 25.7693 11.4707 31.1539 14.0932C37.1636 16.9854 41.2261 17.1815 40.4809 20.3432Z" fill="url(#paint1_linear_80_938)"/>
<defs>
<linearGradient id="paint0_linear_80_938" x1="7.74566" y1="32.6227" x2="43.4198" y2="32.6227" gradientUnits="userSpaceOnUse">
<stop stop-color="#FFC940"/>
<stop offset="0.33125" stop-color="#FF7FA8"/>
<stop offset="0.607292" stop-color="#B797D7"/>
<stop offset="0.977083" stop-color="#73AEFC"/>
</linearGradient>
<linearGradient id="paint1_linear_80_938" x1="11.3744" y1="11.4596" x2="40.5689" y2="11.4596" gradientUnits="userSpaceOnUse">
<stop stop-color="#FFC940"/>
<stop offset="0.33125" stop-color="#FF7FA8"/>
<stop offset="0.607292" stop-color="#B797D7"/>
<stop offset="0.977083" stop-color="#73AEFC"/>
</linearGradient>
</defs>
</svg>
