<svg width="128" height="105" viewBox="0 0 128 105" fill="none" xmlns="http://www.w3.org/2000/svg">
<path d="M10.5091 92.19C10.4611 91.842 10.4311 91.062 10.4191 89.85C10.4071 89.082 10.3951 88.566 10.3831 88.302L7.50305 83.568C7.05905 82.824 6.65105 82.104 6.27905 81.408C6.15905 81.192 6.13505 80.964 6.20705 80.724C6.27905 80.484 6.42305 80.304 6.63905 80.184C6.85505 80.064 7.08305 80.04 7.32305 80.112C7.56305 80.184 7.74305 80.328 7.86305 80.544C8.40305 81.552 9.52505 83.454 11.2291 86.25C11.4571 85.878 11.7991 85.368 12.2551 84.72C12.7111 84.072 13.0231 83.61 13.1911 83.334C13.2751 83.202 13.5511 82.728 14.0191 81.912C14.3671 81.3 14.6671 80.808 14.9191 80.436C15.0511 80.232 15.2371 80.106 15.4771 80.058C15.7291 80.01 15.9571 80.058 16.1611 80.202C16.3651 80.334 16.4911 80.526 16.5391 80.778C16.5871 81.018 16.5391 81.24 16.3951 81.444C16.2391 81.684 15.9691 82.14 15.5851 82.812L14.7391 84.27C14.5231 84.606 14.1151 85.206 13.5151 86.07C12.9151 86.922 12.4831 87.624 12.2191 88.176C12.2071 88.212 12.1951 88.242 12.1831 88.266C12.1951 88.53 12.2071 89.052 12.2191 89.832C12.2311 90.96 12.2611 91.686 12.3091 92.01C12.3331 92.262 12.2611 92.484 12.0931 92.676C11.9371 92.868 11.7331 92.976 11.4811 93C11.2411 93.024 11.0251 92.958 10.8331 92.802C10.6411 92.634 10.5331 92.43 10.5091 92.19ZM21.4002 93.054C20.7762 92.97 20.2062 92.808 19.6902 92.568C19.1742 92.316 18.7362 92.01 18.3762 91.65C18.0162 91.29 17.6982 90.882 17.4222 90.426C17.1582 89.97 16.9662 89.496 16.8462 89.004C16.7382 88.5 16.6602 87.984 16.6122 87.456C16.5762 86.928 16.5882 86.418 16.6482 85.926C16.7202 85.302 16.8582 84.696 17.0622 84.108C17.2782 83.52 17.5662 82.968 17.9262 82.452C18.2862 81.924 18.7002 81.48 19.1682 81.12C19.6482 80.748 20.2062 80.478 20.8422 80.31C21.4782 80.142 22.1142 80.046 22.7502 80.022C23.0382 80.01 23.3382 80.022 23.6502 80.058C24.2382 80.13 24.7122 80.226 25.0722 80.346C25.9002 80.622 26.5842 81.048 27.1242 81.624C27.6762 82.188 28.0722 82.818 28.3122 83.514C28.5522 84.198 28.6722 84.93 28.6722 85.71C28.6842 86.478 28.5942 87.234 28.4022 87.978C28.2222 88.722 27.9402 89.436 27.5562 90.12C27.1722 90.804 26.6682 91.392 26.0442 91.884C25.4202 92.364 24.7002 92.712 23.8842 92.928C23.0802 93.132 22.2522 93.174 21.4002 93.054ZM21.6702 91.218C22.7862 91.422 23.8242 91.188 24.7842 90.516C25.7562 89.844 26.3922 88.836 26.6922 87.492C26.8722 86.676 26.9142 85.908 26.8182 85.188C26.7222 84.456 26.4702 83.82 26.0622 83.28C25.6542 82.728 25.1622 82.338 24.5862 82.11C24.3102 82.002 24.0882 81.93 23.9202 81.894C23.7642 81.858 23.5722 81.84 23.3442 81.84C23.1642 81.84 22.9662 81.834 22.7502 81.822C22.5222 81.81 22.2222 81.828 21.8502 81.876C21.1662 81.96 20.4642 82.386 19.7442 83.154C19.0242 83.91 18.5982 84.9 18.4662 86.124C18.3702 86.976 18.4122 87.774 18.5922 88.518C18.7842 89.262 19.1502 89.862 19.6902 90.318C20.2182 90.762 20.8782 91.062 21.6702 91.218ZM38.1753 92.892C36.9273 93.276 35.5953 93.15 34.1793 92.514C32.7753 91.878 31.7433 91.014 31.0833 89.922C30.6033 89.118 30.3033 88.272 30.1833 87.384C30.0753 86.496 30.1233 85.728 30.3273 85.08C30.5433 84.42 30.8733 83.748 31.3173 83.064C31.7613 82.38 32.2833 81.798 32.8833 81.318C33.5433 80.814 34.2513 80.454 35.0073 80.238C35.7753 80.022 36.5553 79.968 37.3473 80.076C38.1513 80.184 38.9553 80.514 39.7593 81.066C40.5753 81.606 41.3133 82.356 41.9733 83.316C42.1173 83.52 42.1653 83.748 42.1173 84C42.0693 84.24 41.9373 84.432 41.7213 84.576C41.5173 84.72 41.2953 84.768 41.0553 84.72C40.8153 84.672 40.6233 84.546 40.4793 84.342C39.9633 83.598 39.4053 83.022 38.8053 82.614C38.2173 82.194 37.6413 81.954 37.0773 81.894C36.5133 81.822 35.9733 81.858 35.4573 82.002C34.9653 82.158 34.4853 82.416 34.0173 82.776C33.3813 83.268 32.8833 83.862 32.5233 84.558C32.1633 85.158 31.9833 85.854 31.9833 86.646C31.9833 87.438 32.2053 88.212 32.6493 88.968C33.1173 89.748 33.8613 90.366 34.8813 90.822C35.9133 91.278 36.8373 91.386 37.6533 91.146C38.3973 90.918 38.9973 90.486 39.4533 89.85C39.9213 89.202 40.1493 88.494 40.1373 87.726C39.0813 87.738 37.9413 87.774 36.7173 87.834C36.4773 87.846 36.2613 87.768 36.0693 87.6C35.8893 87.432 35.7933 87.222 35.7813 86.97C35.7693 86.718 35.8473 86.496 36.0153 86.304C36.1833 86.112 36.3933 86.01 36.6453 85.998C38.1693 85.926 39.6213 85.89 41.0013 85.89C41.2533 85.89 41.4693 85.98 41.6493 86.16C41.8293 86.34 41.9193 86.556 41.9193 86.808V86.934C42.1233 88.23 41.8653 89.454 41.1453 90.606C40.4373 91.746 39.4473 92.508 38.1753 92.892ZM44.5001 92.46C44.4041 92.7 44.2361 92.868 43.9961 92.964C43.7681 93.06 43.5341 93.06 43.2941 92.964C43.0661 92.868 42.9041 92.706 42.8081 92.478C42.7121 92.238 42.7121 92.004 42.8081 91.776C43.0481 91.188 43.3601 90.294 43.7441 89.094C44.1401 87.894 44.4221 87.084 44.5901 86.664C44.6741 86.424 45.0161 85.572 45.6161 84.108C46.1801 82.668 46.6181 81.498 46.9301 80.598C47.0141 80.358 47.1641 80.184 47.3801 80.076C47.6081 79.956 47.8421 79.938 48.0821 80.022C48.1901 80.058 48.2861 80.112 48.3701 80.184C48.6101 80.268 48.7781 80.43 48.8741 80.67L53.3561 91.74C53.4521 91.98 53.4521 92.22 53.3561 92.46C53.2601 92.688 53.0921 92.85 52.8521 92.946C52.6241 93.042 52.3901 93.042 52.1501 92.946C51.9221 92.85 51.7601 92.688 51.6641 92.46L50.3141 88.968C49.8221 88.992 49.5461 89.004 49.4861 89.004C47.8661 89.064 46.5941 89.094 45.6701 89.094C45.1301 90.678 44.7401 91.8 44.5001 92.46ZM46.3361 87.258C47.3441 87.246 48.4241 87.222 49.5761 87.186L47.9381 83.226L46.3361 87.258ZM67.2496 92.892C66.0016 93.276 64.6696 93.15 63.2536 92.514C61.8496 91.878 60.8176 91.014 60.1576 89.922C59.6776 89.118 59.3776 88.272 59.2576 87.384C59.1496 86.496 59.1976 85.728 59.4016 85.08C59.6176 84.42 59.9476 83.748 60.3916 83.064C60.8356 82.38 61.3576 81.798 61.9576 81.318C62.6176 80.814 63.3256 80.454 64.0816 80.238C64.8496 80.022 65.6296 79.968 66.4216 80.076C67.2256 80.184 68.0296 80.514 68.8336 81.066C69.6496 81.606 70.3876 82.356 71.0476 83.316C71.1916 83.52 71.2396 83.748 71.1916 84C71.1436 84.24 71.0116 84.432 70.7956 84.576C70.5916 84.72 70.3696 84.768 70.1296 84.72C69.8896 84.672 69.6976 84.546 69.5536 84.342C69.0376 83.598 68.4796 83.022 67.8796 82.614C67.2916 82.194 66.7156 81.954 66.1516 81.894C65.5876 81.822 65.0476 81.858 64.5316 82.002C64.0396 82.158 63.5596 82.416 63.0916 82.776C62.4556 83.268 61.9576 83.862 61.5976 84.558C61.2376 85.158 61.0576 85.854 61.0576 86.646C61.0576 87.438 61.2796 88.212 61.7236 88.968C62.1916 89.748 62.9356 90.366 63.9556 90.822C64.9876 91.278 65.9116 91.386 66.7276 91.146C67.4716 90.918 68.0716 90.486 68.5276 89.85C68.9956 89.202 69.2236 88.494 69.2116 87.726C68.1556 87.738 67.0156 87.774 65.7916 87.834C65.5516 87.846 65.3356 87.768 65.1436 87.6C64.9636 87.432 64.8676 87.222 64.8556 86.97C64.8436 86.718 64.9216 86.496 65.0896 86.304C65.2576 86.112 65.4676 86.01 65.7196 85.998C67.2436 85.926 68.6956 85.89 70.0756 85.89C70.3276 85.89 70.5436 85.98 70.7236 86.16C70.9036 86.34 70.9936 86.556 70.9936 86.808V86.934C71.1976 88.23 70.9396 89.454 70.2196 90.606C69.5116 91.746 68.5216 92.508 67.2496 92.892ZM73.5743 92.46C73.4783 92.7 73.3103 92.868 73.0703 92.964C72.8423 93.06 72.6083 93.06 72.3683 92.964C72.1403 92.868 71.9783 92.706 71.8823 92.478C71.7863 92.238 71.7863 92.004 71.8823 91.776C72.1223 91.188 72.4343 90.294 72.8183 89.094C73.2143 87.894 73.4963 87.084 73.6643 86.664C73.7483 86.424 74.0903 85.572 74.6903 84.108C75.2543 82.668 75.6923 81.498 76.0043 80.598C76.0883 80.358 76.2383 80.184 76.4543 80.076C76.6823 79.956 76.9163 79.938 77.1563 80.022C77.2643 80.058 77.3603 80.112 77.4443 80.184C77.6843 80.268 77.8523 80.43 77.9483 80.67L82.4303 91.74C82.5263 91.98 82.5263 92.22 82.4303 92.46C82.3343 92.688 82.1663 92.85 81.9263 92.946C81.6983 93.042 81.4643 93.042 81.2243 92.946C80.9963 92.85 80.8343 92.688 80.7383 92.46L79.3883 88.968C78.8963 88.992 78.6203 89.004 78.5603 89.004C76.9403 89.064 75.6683 89.094 74.7443 89.094C74.2043 90.678 73.8143 91.8 73.5743 92.46ZM75.4103 87.258C76.4183 87.246 77.4983 87.222 78.6503 87.186L77.0123 83.226L75.4103 87.258ZM96.4402 92.154C96.4282 92.406 96.3322 92.616 96.1522 92.784C95.9722 92.952 95.7562 93.03 95.5042 93.018C95.2522 93.006 95.0422 92.91 94.8742 92.73C94.7062 92.55 94.6282 92.334 94.6402 92.082C94.6882 91.722 94.7062 90.288 94.6942 87.78C94.6822 85.272 94.6762 83.838 94.6762 83.478C93.7522 84.678 92.6842 86.214 91.4722 88.086C91.3402 88.302 91.1482 88.434 90.8962 88.482C90.6562 88.53 90.4342 88.488 90.2302 88.356C90.2182 88.344 90.2062 88.338 90.1942 88.338C90.0862 88.266 89.9962 88.182 89.9242 88.086C89.4202 87.378 88.5682 86.304 87.3682 84.864L86.1982 83.46C86.2342 84.36 86.2522 85.392 86.2522 86.556C86.2522 87.132 86.2402 88.038 86.2162 89.274C86.2042 90.51 86.1982 91.446 86.1982 92.082C86.1982 92.334 86.1082 92.55 85.9282 92.73C85.7602 92.898 85.5502 92.982 85.2982 92.982C85.0462 92.982 84.8302 92.898 84.6502 92.73C84.4822 92.55 84.3982 92.334 84.3982 92.082C84.3982 91.446 84.4042 90.51 84.4162 89.274C84.4402 88.038 84.4522 87.126 84.4522 86.538C84.4522 84.294 84.3802 82.488 84.2362 81.12C84.2122 80.868 84.2782 80.646 84.4342 80.454C84.5902 80.262 84.7942 80.154 85.0462 80.13C85.1662 80.118 85.2802 80.13 85.3882 80.166C85.6642 80.178 85.8922 80.292 86.0722 80.508L88.7542 83.694C89.5102 84.594 90.1462 85.38 90.6622 86.052C92.2702 83.604 93.6682 81.738 94.8562 80.454C94.9042 80.406 94.9522 80.364 95.0002 80.328C95.1922 80.148 95.4142 80.064 95.6662 80.076C95.9182 80.088 96.1282 80.184 96.2962 80.364C96.4642 80.544 96.5422 80.76 96.5302 81.012C96.4822 82.272 96.4642 84.144 96.4762 86.628C96.5002 89.1 96.4882 90.942 96.4402 92.154ZM108.415 92.928C106.795 92.952 104.245 92.934 100.765 92.874C100.525 92.874 100.315 92.784 100.135 92.604C99.9673 92.424 99.8833 92.214 99.8833 91.974C99.8113 91.83 99.7753 91.68 99.7753 91.524C99.7993 90.708 99.8113 89.532 99.8113 87.996C99.8113 86.46 99.8173 85.416 99.8293 84.864C99.8293 84.66 99.8233 84.306 99.8113 83.802C99.7993 83.286 99.7993 82.812 99.8113 82.38C99.8233 81.936 99.8593 81.522 99.9193 81.138C99.9433 80.97 100.015 80.82 100.135 80.688C100.255 80.556 100.399 80.466 100.567 80.418C100.723 80.274 100.915 80.196 101.143 80.184C102.031 80.16 103.297 80.142 104.941 80.13C106.597 80.118 107.725 80.112 108.325 80.112C108.577 80.112 108.787 80.202 108.955 80.382C109.135 80.55 109.225 80.76 109.225 81.012C109.225 81.264 109.135 81.48 108.955 81.66C108.787 81.828 108.577 81.912 108.325 81.912C107.689 81.912 106.615 81.918 105.103 81.93C103.603 81.942 102.445 81.954 101.629 81.966C101.593 82.134 101.581 82.596 101.593 83.352C101.617 84.096 101.629 84.612 101.629 84.9V85.638C102.217 85.602 102.841 85.584 103.501 85.584C104.173 85.584 104.929 85.59 105.769 85.602C106.621 85.614 107.251 85.62 107.659 85.62C107.911 85.62 108.121 85.71 108.289 85.89C108.469 86.058 108.559 86.268 108.559 86.52C108.559 86.772 108.469 86.988 108.289 87.168C108.121 87.336 107.911 87.42 107.659 87.42C107.239 87.42 106.603 87.414 105.751 87.402C104.911 87.39 104.161 87.384 103.501 87.384C102.841 87.384 102.211 87.402 101.611 87.438C101.611 89.142 101.605 90.36 101.593 91.092C104.521 91.14 106.783 91.152 108.379 91.128C108.631 91.128 108.847 91.212 109.027 91.38C109.207 91.548 109.297 91.758 109.297 92.01C109.297 92.262 109.213 92.478 109.045 92.658C108.877 92.838 108.667 92.928 108.415 92.928ZM115.259 93.18C114.407 93.18 113.639 93.018 112.955 92.694C112.271 92.358 111.731 91.902 111.335 91.326C110.951 90.738 110.759 90.072 110.759 89.328C110.759 89.04 110.849 88.812 111.029 88.644C111.221 88.464 111.443 88.374 111.695 88.374C111.887 88.374 112.061 88.434 112.217 88.554C112.373 88.674 112.469 88.854 112.505 89.094C112.673 90.642 113.669 91.416 115.493 91.416C116.369 91.416 117.059 91.224 117.563 90.84C118.067 90.456 118.319 89.964 118.319 89.364C118.319 89.004 118.145 88.704 117.797 88.464C117.449 88.212 116.975 87.99 116.375 87.798L115.817 87.6C114.629 87.204 113.777 86.88 113.261 86.628C112.517 86.256 111.959 85.818 111.587 85.314C111.227 84.81 111.047 84.216 111.047 83.532C111.047 82.932 111.239 82.356 111.623 81.804C112.007 81.252 112.541 80.808 113.225 80.472C113.921 80.124 114.695 79.95 115.547 79.95C116.435 79.95 117.227 80.112 117.923 80.436C118.619 80.76 119.159 81.192 119.543 81.732C119.927 82.272 120.119 82.848 120.119 83.46C120.119 83.772 120.029 84.018 119.849 84.198C119.681 84.366 119.471 84.45 119.219 84.45C118.979 84.45 118.775 84.366 118.607 84.198C118.439 84.018 118.355 83.784 118.355 83.496C118.355 83.196 118.223 82.908 117.959 82.632C117.707 82.344 117.359 82.116 116.915 81.948C116.483 81.768 116.009 81.678 115.493 81.678C114.605 81.678 113.945 81.834 113.513 82.146C113.081 82.446 112.853 82.866 112.829 83.406C112.817 83.694 112.907 83.946 113.099 84.162C113.291 84.378 113.591 84.6 113.999 84.828C114.383 85.032 114.791 85.224 115.223 85.404C115.655 85.572 116.231 85.776 116.951 86.016C117.911 86.34 118.673 86.766 119.237 87.294C119.813 87.81 120.101 88.482 120.101 89.31C120.101 90.078 119.873 90.756 119.417 91.344C118.961 91.932 118.361 92.388 117.617 92.712C116.885 93.024 116.099 93.18 115.259 93.18Z" fill="#303030"/>
<path d="M85.9935 48.0297C89.4699 49.6644 91.6717 52.1165 92.7146 54.841C95.6117 62.1973 90.5901 71.4996 81.6286 71.4996C73.7486 71.4996 70.2335 65.2721 64.4394 65.2332C64.1304 65.2332 63.8214 65.2462 63.5123 65.2721C64.1304 64.6494 64.8257 63.9488 65.5596 63.1703C70.3108 58.1494 74.5211 66.9458 78.268 62.1194C80.3539 59.4727 75.0233 54.1794 68.5339 57.2542C62.508 60.1344 62.4308 65.0386 53.5465 70.0595C51.7696 70.8769 49.7224 71.4996 47.2889 71.4996C34.3873 71.4996 27.3571 54.4518 44.2373 47.6794C49.4134 45.6165 53.3147 44.371 56.6367 42.1525C62.3149 38.416 64.4394 32.1106 64.4394 32.1106C65.9845 35.6525 69.4996 40.3231 73.6327 43.1644C70.0404 44.4099 66.3321 47.7183 60.1518 53.9069C55.1302 58.9278 49.9541 49.5476 46.5549 54.1794C44.5849 56.9039 49.1043 62.1973 56.2504 59.2392C61.6582 56.9817 67.8386 47.368 78.3839 46.7453C81.2809 46.5896 84.0621 47.1345 85.9935 48.0297Z" fill="url(#paint0_linear_81_951)"/>
<path d="M88.8133 32.3052C87.5386 37.7932 75.2551 37.7543 69.3837 30.5537C66.0232 26.4669 65.521 22.3412 64.7098 22.3412C63.9759 22.3412 62.7012 26.9729 60.0745 30.5537C54.5895 38.0657 41.8811 37.7932 40.6064 32.3052C39.7179 28.4909 43.1171 27.7903 48.8726 25.3382C50.7267 24.5597 53.3534 23.6256 55.5938 22.3801C64.4394 17.3592 59.8814 15.4909 58.6067 12.3772C57.7569 10.3921 57.1775 8.48497 57.8728 5.87719C58.8385 1.985 61.7355 0.155664 64.5553 0.0778201C67.491 -2.38121e-05 70.6584 1.82931 71.5855 5.83827C72.2808 8.87418 71.6628 10.3532 70.8516 12.3772C69.4996 15.7245 65.1734 18.2155 73.8259 22.3801C83.4827 26.9729 90.0107 27.2843 88.8133 32.3052Z" fill="url(#paint1_linear_81_951)"/>
<defs>
<linearGradient id="paint0_linear_81_951" x1="36.2111" y1="51.8051" x2="93.5357" y2="51.8051" gradientUnits="userSpaceOnUse">
<stop stop-color="#FFC940"/>
<stop offset="0.33125" stop-color="#FF7FA8"/>
<stop offset="0.607292" stop-color="#B797D7"/>
<stop offset="0.977083" stop-color="#73AEFC"/>
</linearGradient>
<linearGradient id="paint1_linear_81_951" x1="42.0422" y1="18.1979" x2="88.9547" y2="18.1979" gradientUnits="userSpaceOnUse">
<stop stop-color="#FFC940"/>
<stop offset="0.33125" stop-color="#FF7FA8"/>
<stop offset="0.607292" stop-color="#B797D7"/>
<stop offset="0.977083" stop-color="#73AEFC"/>
</linearGradient>
</defs>
</svg>
