<svg width="108" height="50" viewBox="0 0 108 50" fill="none" xmlns="http://www.w3.org/2000/svg">
<path d="M38.7261 29.6635C40.8895 30.6731 42.2597 32.1876 42.9088 33.8702C44.7117 38.4135 41.5867 44.1587 36.0097 44.1587C31.1059 44.1587 28.9184 40.3126 25.3126 40.2885C25.1203 40.2885 24.928 40.2965 24.7357 40.3126C25.1203 39.9279 25.553 39.4952 26.0097 39.0145C28.9665 35.9135 31.5867 41.3462 33.9184 38.3654C35.2165 36.7308 31.8992 33.4616 27.8607 35.3606C24.1107 37.1395 24.0626 40.1683 18.5338 43.2693C17.428 43.7741 16.154 44.1587 14.6395 44.1587C6.6107 44.1587 2.2357 33.6299 12.7405 29.4472C15.9617 28.1731 18.3895 27.4039 20.4569 26.0337C23.9905 23.726 25.3126 19.8318 25.3126 19.8318C26.2742 22.0193 28.4617 24.9039 31.0338 26.6587C28.7982 27.4279 26.4905 29.4712 22.6444 33.2933C19.5194 36.3943 16.2982 30.601 14.1828 33.4616C12.9569 35.1443 15.7694 38.4135 20.2165 36.5866C23.5819 35.1924 27.428 29.2549 33.9905 28.8702C35.7934 28.7741 37.5242 29.1106 38.7261 29.6635Z" fill="url(#paint0_linear_47_4)"/>
<path d="M40.4809 19.9519C39.6876 23.3414 32.0434 23.3173 28.3895 18.8702C26.2982 16.3462 25.9857 13.7981 25.4809 13.7981C25.0241 13.7981 24.2309 16.6587 22.5962 18.8702C19.1828 23.5096 11.2741 23.3414 10.4809 19.9519C9.92798 17.5962 12.0434 17.1635 15.6251 15.6491C16.7789 15.1683 18.4136 14.5914 19.8078 13.8221C25.3126 10.7212 22.4761 9.56733 21.6828 7.64425C21.1539 6.41829 20.7934 5.24041 21.2261 3.62983C21.827 1.22599 23.6299 0.0961781 25.3847 0.0481012C27.2116 2.42516e-05 29.1828 1.12983 29.7597 3.60579C30.1924 5.48079 29.8078 6.39425 29.303 7.64425C28.4616 9.71156 25.7693 11.25 31.1539 13.8221C37.1636 16.6587 41.2261 16.851 40.4809 19.9519Z" fill="url(#paint1_linear_47_4)"/>
<path d="M47.952 26.46C47.92 26.228 47.9 25.708 47.892 24.9C47.884 24.388 47.876 24.044 47.868 23.868L45.948 20.712C45.652 20.216 45.38 19.736 45.132 19.272C45.052 19.128 45.036 18.976 45.084 18.816C45.132 18.656 45.228 18.536 45.372 18.456C45.516 18.376 45.668 18.36 45.828 18.408C45.988 18.456 46.108 18.552 46.188 18.696C46.548 19.368 47.296 20.636 48.432 22.5C48.584 22.252 48.812 21.912 49.116 21.48C49.42 21.048 49.628 20.74 49.74 20.556C49.796 20.468 49.98 20.152 50.292 19.608C50.524 19.2 50.724 18.872 50.892 18.624C50.98 18.488 51.104 18.404 51.264 18.372C51.432 18.34 51.584 18.372 51.72 18.468C51.856 18.556 51.94 18.684 51.972 18.852C52.004 19.012 51.972 19.16 51.876 19.296C51.772 19.456 51.592 19.76 51.336 20.208L50.772 21.18C50.628 21.404 50.356 21.804 49.956 22.38C49.556 22.948 49.268 23.416 49.092 23.784C49.084 23.808 49.076 23.828 49.068 23.844C49.076 24.02 49.084 24.368 49.092 24.888C49.1 25.64 49.12 26.124 49.152 26.34C49.168 26.508 49.12 26.656 49.008 26.784C48.904 26.912 48.768 26.984 48.6 27C48.44 27.016 48.296 26.972 48.168 26.868C48.04 26.756 47.968 26.62 47.952 26.46ZM55.2128 27.036C54.7968 26.98 54.4168 26.872 54.0728 26.712C53.7288 26.544 53.4368 26.34 53.1968 26.1C52.9568 25.86 52.7448 25.588 52.5608 25.284C52.3848 24.98 52.2568 24.664 52.1768 24.336C52.1048 24 52.0528 23.656 52.0208 23.304C51.9968 22.952 52.0048 22.612 52.0448 22.284C52.0928 21.868 52.1848 21.464 52.3208 21.072C52.4648 20.68 52.6568 20.312 52.8968 19.968C53.1368 19.616 53.4128 19.32 53.7248 19.08C54.0448 18.832 54.4168 18.652 54.8408 18.54C55.2648 18.428 55.6888 18.364 56.1128 18.348C56.3048 18.34 56.5048 18.348 56.7128 18.372C57.1048 18.42 57.4208 18.484 57.6608 18.564C58.2128 18.748 58.6688 19.032 59.0288 19.416C59.3968 19.792 59.6608 20.212 59.8208 20.676C59.9808 21.132 60.0608 21.62 60.0608 22.14C60.0688 22.652 60.0088 23.156 59.8808 23.652C59.7608 24.148 59.5728 24.624 59.3168 25.08C59.0608 25.536 58.7248 25.928 58.3088 26.256C57.8928 26.576 57.4128 26.808 56.8688 26.952C56.3328 27.088 55.7808 27.116 55.2128 27.036ZM55.3928 25.812C56.1368 25.948 56.8288 25.792 57.4688 25.344C58.1168 24.896 58.5408 24.224 58.7408 23.328C58.8608 22.784 58.8888 22.272 58.8248 21.792C58.7608 21.304 58.5928 20.88 58.3208 20.52C58.0488 20.152 57.7208 19.892 57.3368 19.74C57.1528 19.668 57.0048 19.62 56.8928 19.596C56.7888 19.572 56.6608 19.56 56.5088 19.56C56.3888 19.56 56.2568 19.556 56.1128 19.548C55.9608 19.54 55.7608 19.552 55.5128 19.584C55.0568 19.64 54.5888 19.924 54.1088 20.436C53.6288 20.94 53.3448 21.6 53.2568 22.416C53.1928 22.984 53.2208 23.516 53.3408 24.012C53.4688 24.508 53.7128 24.908 54.0728 25.212C54.4248 25.508 54.8648 25.708 55.3928 25.812ZM66.3962 26.928C65.5642 27.184 64.6762 27.1 63.7322 26.676C62.7962 26.252 62.1082 25.676 61.6682 24.948C61.3482 24.412 61.1482 23.848 61.0682 23.256C60.9962 22.664 61.0282 22.152 61.1642 21.72C61.3082 21.28 61.5282 20.832 61.8242 20.376C62.1202 19.92 62.4682 19.532 62.8682 19.212C63.3082 18.876 63.7802 18.636 64.2842 18.492C64.7962 18.348 65.3162 18.312 65.8442 18.384C66.3802 18.456 66.9162 18.676 67.4522 19.044C67.9962 19.404 68.4882 19.904 68.9282 20.544C69.0242 20.68 69.0562 20.832 69.0242 21C68.9922 21.16 68.9042 21.288 68.7602 21.384C68.6242 21.48 68.4762 21.512 68.3162 21.48C68.1562 21.448 68.0282 21.364 67.9322 21.228C67.5882 20.732 67.2162 20.348 66.8162 20.076C66.4242 19.796 66.0402 19.636 65.6642 19.596C65.2882 19.548 64.9282 19.572 64.5842 19.668C64.2562 19.772 63.9362 19.944 63.6242 20.184C63.2002 20.512 62.8682 20.908 62.6282 21.372C62.3882 21.772 62.2682 22.236 62.2682 22.764C62.2682 23.292 62.4162 23.808 62.7122 24.312C63.0242 24.832 63.5202 25.244 64.2002 25.548C64.8882 25.852 65.5042 25.924 66.0482 25.764C66.5442 25.612 66.9442 25.324 67.2482 24.9C67.5602 24.468 67.7122 23.996 67.7042 23.484C67.0002 23.492 66.2402 23.516 65.4242 23.556C65.2642 23.564 65.1202 23.512 64.9922 23.4C64.8722 23.288 64.8082 23.148 64.8002 22.98C64.7922 22.812 64.8442 22.664 64.9562 22.536C65.0682 22.408 65.2082 22.34 65.3762 22.332C66.3922 22.284 67.3602 22.26 68.2802 22.26C68.4482 22.26 68.5922 22.32 68.7122 22.44C68.8322 22.56 68.8922 22.704 68.8922 22.872V22.956C69.0282 23.82 68.8562 24.636 68.3762 25.404C67.9042 26.164 67.2442 26.672 66.3962 26.928ZM70.6127 26.64C70.5487 26.8 70.4367 26.912 70.2767 26.976C70.1247 27.04 69.9687 27.04 69.8087 26.976C69.6567 26.912 69.5487 26.804 69.4847 26.652C69.4207 26.492 69.4207 26.336 69.4847 26.184C69.6447 25.792 69.8527 25.196 70.1087 24.396C70.3727 23.596 70.5607 23.056 70.6727 22.776C70.7287 22.616 70.9567 22.048 71.3567 21.072C71.7327 20.112 72.0247 19.332 72.2327 18.732C72.2887 18.572 72.3887 18.456 72.5327 18.384C72.6847 18.304 72.8407 18.292 73.0007 18.348C73.0727 18.372 73.1367 18.408 73.1927 18.456C73.3527 18.512 73.4647 18.62 73.5287 18.78L76.5167 26.16C76.5807 26.32 76.5807 26.48 76.5167 26.64C76.4527 26.792 76.3407 26.9 76.1807 26.964C76.0287 27.028 75.8727 27.028 75.7127 26.964C75.5607 26.9 75.4527 26.792 75.3887 26.64L74.4887 24.312C74.1607 24.328 73.9767 24.336 73.9367 24.336C72.8567 24.376 72.0087 24.396 71.3927 24.396C71.0327 25.452 70.7727 26.2 70.6127 26.64ZM71.8367 23.172C72.5087 23.164 73.2287 23.148 73.9967 23.124L72.9047 20.484L71.8367 23.172ZM83.499 22.908L82.251 23.94C82.259 24.876 82.279 25.688 82.311 26.376C82.319 26.544 82.267 26.692 82.155 26.82C82.051 26.94 81.915 27.004 81.747 27.012C81.579 27.02 81.431 26.972 81.303 26.868C81.183 26.756 81.119 26.616 81.111 26.448C81.087 25.968 81.071 25.496 81.063 25.032C81.055 24.456 81.051 23.868 81.051 23.268C81.051 22.668 81.047 22.2 81.039 21.864C81.039 21.656 81.023 21.228 80.991 20.58C80.959 19.924 80.947 19.4 80.955 19.008C80.955 18.84 81.015 18.7 81.135 18.588C81.255 18.476 81.399 18.42 81.567 18.42C81.735 18.42 81.875 18.48 81.987 18.6C82.099 18.72 82.155 18.864 82.155 19.032C82.147 19.416 82.159 19.928 82.191 20.568C82.223 21.208 82.239 21.632 82.239 21.84C82.239 22.016 82.243 22.204 82.251 22.404C83.507 21.356 84.811 20.096 86.163 18.624C86.275 18.504 86.415 18.44 86.583 18.432C86.751 18.424 86.895 18.476 87.015 18.588C87.135 18.7 87.199 18.84 87.207 19.008C87.215 19.176 87.163 19.32 87.051 19.44C86.155 20.432 85.271 21.324 84.399 22.116L87.483 26.04C87.587 26.168 87.627 26.316 87.603 26.484C87.587 26.644 87.515 26.776 87.387 26.88C87.259 26.984 87.111 27.024 86.943 27C86.783 26.984 86.651 26.912 86.547 26.784L83.499 22.908ZM88.6534 27.024C88.4854 27.032 88.3414 26.98 88.2214 26.868C88.1014 26.748 88.0374 26.608 88.0294 26.448C88.0214 26.28 88.0734 26.136 88.1854 26.016C88.3054 25.896 88.4454 25.832 88.6054 25.824L88.8694 25.812C88.8694 23.324 88.8614 21.256 88.8454 19.608H88.6534C88.4854 19.608 88.3454 19.548 88.2334 19.428C88.1214 19.308 88.0654 19.164 88.0654 18.996C88.0654 18.828 88.1254 18.688 88.2454 18.576C88.3654 18.464 88.5094 18.408 88.6774 18.408C89.0854 18.416 89.5814 18.424 90.1654 18.432C90.3254 18.432 90.4614 18.492 90.5734 18.612C90.6934 18.732 90.7534 18.876 90.7534 19.044C90.7534 19.204 90.6934 19.344 90.5734 19.464C90.4534 19.576 90.3094 19.632 90.1414 19.632H90.0454C90.0614 21.272 90.0694 23.328 90.0694 25.8H90.3094C90.4774 25.8 90.6174 25.86 90.7294 25.98C90.8494 26.092 90.9094 26.232 90.9094 26.4C90.9094 26.568 90.8494 26.712 90.7294 26.832C90.6174 26.944 90.4774 27 90.3094 27C89.6934 27 89.1414 27.008 88.6534 27.024ZM93.1602 27.024C93.0402 27.032 92.9282 27.004 92.8242 26.94C92.6962 26.9 92.5922 26.828 92.5122 26.724C92.4402 26.612 92.4042 26.488 92.4042 26.352C92.4042 26.096 92.4242 24.844 92.4642 22.596C92.4722 22.228 92.4602 21.64 92.4282 20.832C92.3962 20.04 92.3922 19.424 92.4162 18.984C92.4242 18.816 92.4882 18.676 92.6082 18.564C92.7362 18.452 92.8802 18.4 93.0402 18.408H93.0882C93.1602 18.368 93.2362 18.344 93.3162 18.336C93.6842 18.304 93.9762 18.284 94.1922 18.276C94.4082 18.26 94.7122 18.252 95.1042 18.252C95.4962 18.252 95.8322 18.28 96.1122 18.336C96.3922 18.384 96.7002 18.468 97.0362 18.588C97.3802 18.708 97.6842 18.864 97.9482 19.056C98.5082 19.464 98.9162 19.988 99.1722 20.628C99.4362 21.26 99.5562 21.928 99.5322 22.632C99.5082 23.312 99.3562 23.968 99.0762 24.6C98.7882 25.224 98.3922 25.736 97.8882 26.136C97.2882 26.616 96.4762 26.896 95.4522 26.976C95.1482 27 94.7482 27.012 94.2522 27.012C93.7162 27.012 93.3522 27.016 93.1602 27.024ZM94.2522 25.812C94.7242 25.812 95.0922 25.8 95.3562 25.776C96.0842 25.72 96.6562 25.528 97.0722 25.2C97.4242 24.92 97.7042 24.548 97.9122 24.084C98.1282 23.612 98.2442 23.112 98.2602 22.584C98.2842 22.056 98.2042 21.568 98.0202 21.12C97.8282 20.664 97.5482 20.304 97.1802 20.04C96.8842 19.824 96.5322 19.668 96.1242 19.572C95.7082 19.476 95.3042 19.436 94.9122 19.452C94.5202 19.46 94.0842 19.484 93.6042 19.524C93.5962 19.756 93.6042 20.176 93.6282 20.784C93.6602 21.656 93.6722 22.268 93.6642 22.62C93.6642 22.86 93.6602 23.196 93.6522 23.628C93.6442 24.052 93.6362 24.444 93.6282 24.804C93.6202 25.164 93.6162 25.5 93.6162 25.812H94.2522ZM103.512 27.12C102.944 27.12 102.432 27.012 101.976 26.796C101.52 26.572 101.16 26.268 100.896 25.884C100.64 25.492 100.512 25.048 100.512 24.552C100.512 24.36 100.572 24.208 100.692 24.096C100.82 23.976 100.968 23.916 101.136 23.916C101.264 23.916 101.38 23.956 101.484 24.036C101.588 24.116 101.652 24.236 101.676 24.396C101.788 25.428 102.452 25.944 103.668 25.944C104.252 25.944 104.712 25.816 105.048 25.56C105.384 25.304 105.552 24.976 105.552 24.576C105.552 24.336 105.436 24.136 105.204 23.976C104.972 23.808 104.656 23.66 104.256 23.532L103.884 23.4C103.092 23.136 102.524 22.92 102.18 22.752C101.684 22.504 101.312 22.212 101.064 21.876C100.824 21.54 100.704 21.144 100.704 20.688C100.704 20.288 100.832 19.904 101.088 19.536C101.344 19.168 101.7 18.872 102.156 18.648C102.62 18.416 103.136 18.3 103.704 18.3C104.296 18.3 104.824 18.408 105.288 18.624C105.752 18.84 106.112 19.128 106.368 19.488C106.624 19.848 106.752 20.232 106.752 20.64C106.752 20.848 106.692 21.012 106.572 21.132C106.46 21.244 106.32 21.3 106.152 21.3C105.992 21.3 105.856 21.244 105.744 21.132C105.632 21.012 105.576 20.856 105.576 20.664C105.576 20.464 105.488 20.272 105.312 20.088C105.144 19.896 104.912 19.744 104.616 19.632C104.328 19.512 104.012 19.452 103.668 19.452C103.076 19.452 102.636 19.556 102.348 19.764C102.06 19.964 101.908 20.244 101.892 20.604C101.884 20.796 101.944 20.964 102.072 21.108C102.2 21.252 102.4 21.4 102.672 21.552C102.928 21.688 103.2 21.816 103.488 21.936C103.776 22.048 104.16 22.184 104.64 22.344C105.28 22.56 105.788 22.844 106.164 23.196C106.548 23.54 106.74 23.988 106.74 24.54C106.74 25.052 106.588 25.504 106.284 25.896C105.98 26.288 105.58 26.592 105.084 26.808C104.596 27.016 104.072 27.12 103.512 27.12Z" fill="#29292B"/>
<path d="M49.114 35.613L48.386 36.215C48.3907 36.761 48.4023 37.2347 48.421 37.636C48.4257 37.734 48.3953 37.8203 48.33 37.895C48.2693 37.965 48.19 38.0023 48.092 38.007C47.994 38.0117 47.9077 37.9837 47.833 37.923C47.763 37.8577 47.7257 37.776 47.721 37.678C47.707 37.398 47.6977 37.1227 47.693 36.852C47.6883 36.516 47.686 36.173 47.686 35.823C47.686 35.473 47.6837 35.2 47.679 35.004C47.679 34.8827 47.6697 34.633 47.651 34.255C47.6323 33.8723 47.6253 33.5667 47.63 33.338C47.63 33.24 47.665 33.1583 47.735 33.093C47.805 33.0277 47.889 32.995 47.987 32.995C48.085 32.995 48.1667 33.03 48.232 33.1C48.2973 33.17 48.33 33.254 48.33 33.352C48.3253 33.576 48.3323 33.8747 48.351 34.248C48.3697 34.6213 48.379 34.8687 48.379 34.99C48.379 35.0927 48.3813 35.2023 48.386 35.319C49.1187 34.7077 49.8793 33.9727 50.668 33.114C50.7333 33.044 50.815 33.0067 50.913 33.002C51.011 32.9973 51.095 33.0277 51.165 33.093C51.235 33.1583 51.2723 33.24 51.277 33.338C51.2817 33.436 51.2513 33.52 51.186 33.59C50.6633 34.1687 50.1477 34.689 49.639 35.151L51.438 37.44C51.4987 37.5147 51.522 37.601 51.508 37.699C51.4987 37.7923 51.4567 37.8693 51.382 37.93C51.3073 37.9907 51.221 38.014 51.123 38C51.0297 37.9907 50.9527 37.9487 50.892 37.874L49.114 35.613ZM55.7677 38.021C55.7351 38.021 55.7047 38.0163 55.6767 38.007C55.5414 38.0303 55.4294 37.9907 55.3407 37.888C55.2147 37.734 55.0817 37.5613 54.9417 37.37C54.8064 37.174 54.6944 37.006 54.6057 36.866L54.2557 36.313L53.9337 35.809C53.6164 35.319 53.2524 34.8033 52.8417 34.262C52.8371 34.654 52.8441 35.228 52.8627 35.984C52.8861 36.74 52.8977 37.2977 52.8977 37.657C52.8977 37.755 52.8627 37.839 52.7927 37.909C52.7274 37.9743 52.6457 38.007 52.5477 38.007C52.4497 38.007 52.3657 37.9743 52.2957 37.909C52.2304 37.839 52.1977 37.755 52.1977 37.657C52.1977 37.377 52.1861 36.7447 52.1627 35.76C52.1394 34.7707 52.1371 34.01 52.1557 33.478C52.1604 33.408 52.1767 33.3357 52.2047 33.261C52.2281 33.1957 52.2747 33.1303 52.3447 33.065C52.4194 33.0137 52.5057 32.9927 52.6037 33.002C52.7017 33.0113 52.7811 33.0533 52.8417 33.128C53.5044 33.954 54.0644 34.7217 54.5217 35.431L54.8087 35.886L55.1377 36.404L55.4247 36.831C55.4481 35.277 55.4527 34.1173 55.4387 33.352C55.4387 33.254 55.4714 33.17 55.5367 33.1C55.6021 33.03 55.6837 32.995 55.7817 32.995C55.8797 32.995 55.9637 33.0277 56.0337 33.093C56.1037 33.1583 56.1387 33.24 56.1387 33.338C56.1481 33.9213 56.1411 35.368 56.1177 37.678C56.1177 37.7713 56.0827 37.853 56.0127 37.923C55.9427 37.9883 55.8611 38.021 55.7677 38.021ZM58.9594 38.021C58.7167 37.9883 58.4951 37.9253 58.2944 37.832C58.0937 37.734 57.9234 37.615 57.7834 37.475C57.6434 37.335 57.5197 37.1763 57.4124 36.999C57.3097 36.8217 57.2351 36.6373 57.1884 36.446C57.1464 36.25 57.1161 36.0493 57.0974 35.844C57.0834 35.6387 57.0881 35.4403 57.1114 35.249C57.1394 35.0063 57.1931 34.7707 57.2724 34.542C57.3564 34.3133 57.4684 34.0987 57.6084 33.898C57.7484 33.6927 57.9094 33.52 58.0914 33.38C58.2781 33.2353 58.4951 33.1303 58.7424 33.065C58.9897 32.9997 59.2371 32.9623 59.4844 32.953C59.5964 32.9483 59.7131 32.953 59.8344 32.967C60.0631 32.995 60.2474 33.0323 60.3874 33.079C60.7094 33.1863 60.9754 33.352 61.1854 33.576C61.4001 33.7953 61.5541 34.0403 61.6474 34.311C61.7407 34.577 61.7874 34.8617 61.7874 35.165C61.7921 35.4637 61.7571 35.7577 61.6824 36.047C61.6124 36.3363 61.5027 36.614 61.3534 36.88C61.2041 37.146 61.0081 37.3747 60.7654 37.566C60.5227 37.7527 60.2427 37.888 59.9254 37.972C59.6127 38.0513 59.2907 38.0677 58.9594 38.021ZM59.0644 37.307C59.4984 37.3863 59.9021 37.2953 60.2754 37.034C60.6534 36.7727 60.9007 36.3807 61.0174 35.858C61.0874 35.5407 61.1037 35.242 61.0664 34.962C61.0291 34.6773 60.9311 34.43 60.7724 34.22C60.6137 34.0053 60.4224 33.8537 60.1984 33.765C60.0911 33.723 60.0047 33.695 59.9394 33.681C59.8787 33.667 59.8041 33.66 59.7154 33.66C59.6454 33.66 59.5684 33.6577 59.4844 33.653C59.3957 33.6483 59.2791 33.6553 59.1344 33.674C58.8684 33.7067 58.5954 33.8723 58.3154 34.171C58.0354 34.465 57.8697 34.85 57.8184 35.326C57.7811 35.6573 57.7974 35.9677 57.8674 36.257C57.9421 36.5463 58.0844 36.7797 58.2944 36.957C58.4997 37.1297 58.7564 37.2463 59.0644 37.307ZM63.4492 37.993C63.3138 37.9557 63.2322 37.867 63.2042 37.727C63.1902 37.699 63.1785 37.6687 63.1692 37.636C62.8752 36.2967 62.5158 34.8873 62.0912 33.408C62.0632 33.3147 62.0725 33.226 62.1192 33.142C62.1658 33.058 62.2358 33.002 62.3292 32.974C62.4225 32.946 62.5112 32.9553 62.5952 33.002C62.6792 33.0487 62.7352 33.1187 62.7632 33.212C63.0618 34.2667 63.3372 35.3727 63.5892 36.53L64.1352 34.878C64.3732 34.192 64.5505 33.6647 64.6672 33.296C64.6718 33.2213 64.6952 33.156 64.7372 33.1C64.7838 33.0393 64.8445 32.9973 64.9192 32.974C64.9332 32.9647 64.9542 32.96 64.9822 32.96C65.0102 32.96 65.0428 32.9647 65.0802 32.974C65.1548 32.9973 65.2132 33.0393 65.2552 33.1C65.3018 33.1607 65.3252 33.2283 65.3252 33.303C65.6472 34.2923 66.0135 35.4263 66.4242 36.705L67.4322 33.184C67.4602 33.0907 67.5162 33.0207 67.6002 32.974C67.6888 32.9273 67.7775 32.918 67.8662 32.946C67.9595 32.974 68.0295 33.0323 68.0762 33.121C68.1228 33.205 68.1322 33.2913 68.1042 33.38L66.7882 37.755C66.7602 37.8437 66.7018 37.9113 66.6132 37.958C66.5292 38.0047 66.4405 38.014 66.3472 37.986C66.2632 37.958 66.1978 37.9067 66.1512 37.832C66.1185 37.7947 66.0928 37.7527 66.0742 37.706C65.6588 36.4647 65.2902 35.34 64.9682 34.332L64.7092 35.27L64.4012 36.145L64.1492 36.908C64.0465 37.2207 63.9578 37.503 63.8832 37.755C63.8552 37.8483 63.7992 37.9183 63.7152 37.965C63.6312 38.0117 63.5425 38.021 63.4492 37.993ZM71.4447 37.685C71.426 37.5497 71.4143 37.2463 71.4097 36.775C71.405 36.4763 71.4003 36.2757 71.3957 36.173L70.2757 34.332C70.103 34.0427 69.9443 33.7627 69.7997 33.492C69.753 33.408 69.7437 33.3193 69.7717 33.226C69.7997 33.1327 69.8557 33.0627 69.9397 33.016C70.0237 32.9693 70.1123 32.96 70.2057 32.988C70.299 33.016 70.369 33.072 70.4157 33.156C70.6257 33.548 71.062 34.2877 71.7247 35.375C71.8133 35.2303 71.9463 35.032 72.1237 34.78C72.301 34.528 72.4223 34.3483 72.4877 34.241C72.5203 34.1897 72.6277 34.0053 72.8097 33.688C72.945 33.45 73.0617 33.2587 73.1597 33.114C73.211 33.0347 73.2833 32.9857 73.3767 32.967C73.4747 32.9483 73.5633 32.967 73.6427 33.023C73.722 33.0743 73.771 33.149 73.7897 33.247C73.8083 33.3403 73.7897 33.4267 73.7337 33.506C73.673 33.5993 73.568 33.7767 73.4187 34.038L73.0897 34.605C73.0057 34.7357 72.847 34.969 72.6137 35.305C72.3803 35.6363 72.2123 35.9093 72.1097 36.124C72.105 36.138 72.1003 36.1497 72.0957 36.159C72.1003 36.2617 72.105 36.4647 72.1097 36.768C72.1143 37.2067 72.126 37.489 72.1447 37.615C72.154 37.713 72.126 37.7993 72.0607 37.874C72 37.9487 71.9207 37.9907 71.8227 38C71.7293 38.0093 71.6453 37.9837 71.5707 37.923C71.496 37.8577 71.454 37.7783 71.4447 37.685ZM75.6801 38.021C75.4374 37.9883 75.2158 37.9253 75.0151 37.832C74.8144 37.734 74.6441 37.615 74.5041 37.475C74.3641 37.335 74.2404 37.1763 74.1331 36.999C74.0304 36.8217 73.9558 36.6373 73.9091 36.446C73.8671 36.25 73.8368 36.0493 73.8181 35.844C73.8041 35.6387 73.8088 35.4403 73.8321 35.249C73.8601 35.0063 73.9138 34.7707 73.9931 34.542C74.0771 34.3133 74.1891 34.0987 74.3291 33.898C74.4691 33.6927 74.6301 33.52 74.8121 33.38C74.9988 33.2353 75.2158 33.1303 75.4631 33.065C75.7104 32.9997 75.9578 32.9623 76.2051 32.953C76.3171 32.9483 76.4338 32.953 76.5551 32.967C76.7838 32.995 76.9681 33.0323 77.1081 33.079C77.4301 33.1863 77.6961 33.352 77.9061 33.576C78.1208 33.7953 78.2748 34.0403 78.3681 34.311C78.4614 34.577 78.5081 34.8617 78.5081 35.165C78.5128 35.4637 78.4778 35.7577 78.4031 36.047C78.3331 36.3363 78.2234 36.614 78.0741 36.88C77.9248 37.146 77.7288 37.3747 77.4861 37.566C77.2434 37.7527 76.9634 37.888 76.6461 37.972C76.3334 38.0513 76.0114 38.0677 75.6801 38.021ZM75.7851 37.307C76.2191 37.3863 76.6228 37.2953 76.9961 37.034C77.3741 36.7727 77.6214 36.3807 77.7381 35.858C77.8081 35.5407 77.8244 35.242 77.7871 34.962C77.7498 34.6773 77.6518 34.43 77.4931 34.22C77.3344 34.0053 77.1431 33.8537 76.9191 33.765C76.8118 33.723 76.7254 33.695 76.6601 33.681C76.5994 33.667 76.5248 33.66 76.4361 33.66C76.3661 33.66 76.2891 33.6577 76.2051 33.653C76.1164 33.6483 75.9998 33.6553 75.8551 33.674C75.5891 33.7067 75.3161 33.8723 75.0361 34.171C74.7561 34.465 74.5904 34.85 74.5391 35.326C74.5018 35.6573 74.5181 35.9677 74.5881 36.257C74.6628 36.5463 74.8051 36.7797 75.0151 36.957C75.2204 37.1297 75.4771 37.2463 75.7851 37.307ZM79.6541 37.181C79.5188 36.9803 79.4278 36.6817 79.3811 36.285C79.3531 35.991 79.3461 35.6433 79.3601 35.242C79.3695 34.9807 79.3881 34.6283 79.4161 34.185C79.4488 33.7417 79.4675 33.4547 79.4721 33.324C79.4721 33.226 79.5071 33.1443 79.5771 33.079C79.6471 33.0137 79.7311 32.981 79.8291 32.981C79.9271 32.981 80.0088 33.016 80.0741 33.086C80.1395 33.156 80.1721 33.24 80.1721 33.338C80.1675 33.464 80.1488 33.751 80.1161 34.199C80.0881 34.647 80.0695 35.0017 80.0601 35.263C80.0461 35.6363 80.0531 35.9513 80.0811 36.208C80.1091 36.4927 80.1581 36.6863 80.2281 36.789C80.3915 37.0223 80.6131 37.1787 80.8931 37.258C81.1731 37.3327 81.4508 37.321 81.7261 37.223C82.0061 37.125 82.2231 36.957 82.3771 36.719C82.6291 36.3457 82.7621 35.8347 82.7761 35.186C82.7808 34.9527 82.7738 34.6447 82.7551 34.262C82.7271 33.7673 82.7108 33.4593 82.7061 33.338C82.7061 33.24 82.7388 33.156 82.8041 33.086C82.8695 33.016 82.9511 32.981 83.0491 32.981C83.1471 32.981 83.2311 33.0137 83.3011 33.079C83.3711 33.1443 83.4061 33.226 83.4061 33.324C83.4108 33.436 83.4248 33.7347 83.4481 34.22C83.4715 34.6213 83.4808 34.9503 83.4761 35.207C83.4575 35.9863 83.2871 36.621 82.9651 37.111C82.7878 37.377 82.5498 37.587 82.2511 37.741C81.9571 37.895 81.6538 37.9813 81.3411 38C81.0285 38.0187 80.7181 37.9603 80.4101 37.825C80.1021 37.685 79.8501 37.4703 79.6541 37.181ZM87.8121 37.258L87.6861 36.908C87.6627 36.8147 87.6301 36.7167 87.5881 36.614C87.5461 36.5067 87.5017 36.418 87.4551 36.348C87.3664 36.222 87.2381 36.124 87.0701 36.054C86.9067 35.9793 86.6547 35.9327 86.3141 35.914C86.2674 35.914 86.2207 35.9163 86.1741 35.921C86.1274 35.921 86.0341 35.928 85.8941 35.942C85.7587 35.956 85.6607 35.9653 85.6001 35.97C85.4694 35.984 85.3714 35.9863 85.3061 35.977C85.3154 36.6583 85.3201 37.2137 85.3201 37.643C85.3201 37.741 85.2851 37.825 85.2151 37.895C85.1497 37.9603 85.0681 37.993 84.9701 37.993C84.8721 37.993 84.7881 37.9603 84.7181 37.895C84.6527 37.825 84.6201 37.741 84.6201 37.643C84.6201 37.1857 84.6131 36.4997 84.5991 35.585C84.5897 34.6657 84.5851 33.9773 84.5851 33.52C84.5851 33.4407 84.6107 33.3683 84.6621 33.303C84.6761 33.2377 84.7087 33.1817 84.7601 33.135C84.8114 33.0883 84.8721 33.0603 84.9421 33.051C85.2081 33.009 85.5067 32.9857 85.8381 32.981C86.1694 32.9717 86.5544 32.995 86.9931 33.051C87.1517 33.0743 87.2987 33.107 87.4341 33.149C87.5741 33.1863 87.7187 33.2447 87.8681 33.324C88.0221 33.3987 88.1504 33.4873 88.2531 33.59C88.3604 33.688 88.4467 33.814 88.5121 33.968C88.5774 34.1173 88.6054 34.2853 88.5961 34.472C88.5774 34.9807 88.2834 35.361 87.7141 35.613C87.8354 35.7063 87.9404 35.8183 88.0291 35.949C88.0944 36.047 88.1574 36.1683 88.2181 36.313C88.2787 36.4577 88.3254 36.5883 88.3581 36.705C88.3954 36.817 88.4397 36.9617 88.4911 37.139C88.5471 37.3163 88.5914 37.4587 88.6241 37.566C88.6521 37.6547 88.6427 37.7433 88.5961 37.832C88.5494 37.916 88.4794 37.972 88.3861 38C88.2974 38.028 88.2087 38.0187 88.1201 37.972C88.0361 37.9253 87.9801 37.8553 87.9521 37.762L87.8121 37.258ZM85.3831 35.221C85.4157 35.2163 85.4554 35.214 85.5021 35.214C85.5767 35.2093 85.6747 35.207 85.7961 35.207C86.0294 35.2023 86.1787 35.2023 86.2441 35.207H86.3141C86.7201 35.179 87.0537 35.116 87.3151 35.018C87.6931 34.8827 87.8867 34.6913 87.8961 34.444C87.9101 34.0893 87.5717 33.8537 86.8811 33.737C86.4051 33.6577 85.8731 33.6483 85.2851 33.709C85.2851 34.101 85.2897 34.6097 85.2991 35.235L85.3831 35.221ZM90.9686 38.07C90.6373 38.07 90.3386 38.007 90.0726 37.881C89.8066 37.7503 89.5966 37.573 89.4426 37.349C89.2933 37.1203 89.2186 36.8613 89.2186 36.572C89.2186 36.46 89.2536 36.3713 89.3236 36.306C89.3983 36.236 89.4846 36.201 89.5826 36.201C89.6573 36.201 89.725 36.2243 89.7856 36.271C89.8463 36.3177 89.8836 36.3877 89.8976 36.481C89.963 37.083 90.3503 37.384 91.0596 37.384C91.4003 37.384 91.6686 37.3093 91.8646 37.16C92.0606 37.0107 92.1586 36.8193 92.1586 36.586C92.1586 36.446 92.091 36.3293 91.9556 36.236C91.8203 36.138 91.636 36.0517 91.4026 35.977L91.1856 35.9C90.7236 35.746 90.3923 35.62 90.1916 35.522C89.9023 35.3773 89.6853 35.207 89.5406 35.011C89.4006 34.815 89.3306 34.584 89.3306 34.318C89.3306 34.0847 89.4053 33.8607 89.5546 33.646C89.704 33.4313 89.9116 33.2587 90.1776 33.128C90.4483 32.9927 90.7493 32.925 91.0806 32.925C91.426 32.925 91.734 32.988 92.0046 33.114C92.2753 33.24 92.4853 33.408 92.6346 33.618C92.784 33.828 92.8586 34.052 92.8586 34.29C92.8586 34.4113 92.8236 34.507 92.7536 34.577C92.6883 34.6423 92.6066 34.675 92.5086 34.675C92.4153 34.675 92.336 34.6423 92.2706 34.577C92.2053 34.507 92.1726 34.416 92.1726 34.304C92.1726 34.1873 92.1213 34.0753 92.0186 33.968C91.9206 33.856 91.7853 33.7673 91.6126 33.702C91.4446 33.632 91.2603 33.597 91.0596 33.597C90.7143 33.597 90.4576 33.6577 90.2896 33.779C90.1216 33.8957 90.033 34.059 90.0236 34.269C90.019 34.381 90.054 34.479 90.1286 34.563C90.2033 34.647 90.32 34.7333 90.4786 34.822C90.628 34.9013 90.7866 34.976 90.9546 35.046C91.1226 35.1113 91.3466 35.1907 91.6266 35.284C92 35.41 92.2963 35.5757 92.5156 35.781C92.7396 35.9817 92.8516 36.243 92.8516 36.565C92.8516 36.8637 92.763 37.1273 92.5856 37.356C92.4083 37.5847 92.175 37.762 91.8856 37.888C91.601 38.0093 91.2953 38.07 90.9686 38.07ZM97.1599 37.972C96.5299 37.9813 95.5383 37.9743 94.1849 37.951C94.0916 37.951 94.0099 37.916 93.9399 37.846C93.8746 37.776 93.8419 37.6943 93.8419 37.601C93.8139 37.545 93.7999 37.4867 93.7999 37.426C93.8093 37.1087 93.8139 36.6513 93.8139 36.054C93.8139 35.4567 93.8163 35.0507 93.8209 34.836C93.8209 34.7567 93.8186 34.619 93.8139 34.423C93.8093 34.2223 93.8093 34.038 93.8139 33.87C93.8186 33.6973 93.8326 33.5363 93.8559 33.387C93.8653 33.3217 93.8933 33.2633 93.9399 33.212C93.9866 33.1607 94.0426 33.1257 94.1079 33.107C94.1686 33.051 94.2433 33.0207 94.3319 33.016C94.6773 33.0067 95.1696 32.9997 95.8089 32.995C96.4529 32.9903 96.8916 32.988 97.1249 32.988C97.2229 32.988 97.3046 33.023 97.3699 33.093C97.4399 33.1583 97.4749 33.24 97.4749 33.338C97.4749 33.436 97.4399 33.52 97.3699 33.59C97.3046 33.6553 97.2229 33.688 97.1249 33.688C96.8776 33.688 96.4599 33.6903 95.8719 33.695C95.2886 33.6997 94.8383 33.7043 94.5209 33.709C94.5069 33.7743 94.5023 33.954 94.5069 34.248C94.5163 34.5373 94.5209 34.738 94.5209 34.85V35.137C94.7496 35.123 94.9923 35.116 95.2489 35.116C95.5103 35.116 95.8043 35.1183 96.1309 35.123C96.4623 35.1277 96.7073 35.13 96.8659 35.13C96.9639 35.13 97.0456 35.165 97.1109 35.235C97.1809 35.3003 97.2159 35.382 97.2159 35.48C97.2159 35.578 97.1809 35.662 97.1109 35.732C97.0456 35.7973 96.9639 35.83 96.8659 35.83C96.7026 35.83 96.4553 35.8277 96.1239 35.823C95.7973 35.8183 95.5056 35.816 95.2489 35.816C94.9923 35.816 94.7473 35.823 94.5139 35.837C94.5139 36.4997 94.5116 36.9733 94.5069 37.258C95.6456 37.2767 96.5253 37.2813 97.1459 37.272C97.2439 37.272 97.3279 37.3047 97.3979 37.37C97.4679 37.4353 97.5029 37.517 97.5029 37.615C97.5029 37.713 97.4703 37.797 97.4049 37.867C97.3396 37.937 97.2579 37.972 97.1599 37.972ZM100.115 38.014C99.5085 38.0233 99.0768 38.021 98.8202 38.007C98.7315 38.0023 98.6545 37.9697 98.5892 37.909C98.5238 37.8437 98.4888 37.7643 98.4842 37.671C98.4795 37.6477 98.4772 37.6267 98.4772 37.608C98.4725 37.342 98.4608 36.7143 98.4422 35.725C98.4235 34.7357 98.4142 33.9283 98.4142 33.303C98.4142 33.205 98.4468 33.1233 98.5122 33.058C98.5822 32.988 98.6662 32.953 98.7642 32.953C98.8622 32.953 98.9438 32.988 99.0092 33.058C99.0792 33.1233 99.1142 33.205 99.1142 33.303C99.1142 33.7743 99.1165 34.227 99.1212 34.661C99.1305 35.095 99.1398 35.5733 99.1492 36.096C99.1632 36.614 99.1702 37.02 99.1702 37.314C99.4128 37.3187 99.7838 37.3163 100.283 37.307C100.787 37.2977 101.17 37.2953 101.431 37.3C101.529 37.3 101.611 37.335 101.676 37.405C101.742 37.475 101.774 37.559 101.774 37.657C101.774 37.755 101.739 37.8367 101.669 37.902C101.599 37.9673 101.515 38 101.417 38C101.165 37.9953 100.731 38 100.115 38.014ZM102.49 37.664C102.49 37.482 102.492 37.062 102.497 36.404C102.506 35.746 102.506 35.207 102.497 34.787C102.492 34.3623 102.473 33.9307 102.441 33.492C102.441 33.464 102.443 33.436 102.448 33.408C102.443 33.3893 102.441 33.373 102.441 33.359C102.441 33.261 102.473 33.177 102.539 33.107C102.604 33.037 102.686 33.002 102.784 33.002C104.081 32.9787 105.031 32.9787 105.633 33.002C105.731 33.0067 105.812 33.044 105.878 33.114C105.943 33.184 105.973 33.268 105.969 33.366C105.964 33.464 105.927 33.5457 105.857 33.611C105.787 33.6763 105.703 33.7067 105.605 33.702C105.017 33.6787 104.2 33.6763 103.155 33.695C103.183 34.1337 103.199 34.6167 103.204 35.144C103.512 35.144 104.205 35.137 105.283 35.123C105.381 35.123 105.465 35.158 105.535 35.228C105.605 35.2933 105.64 35.375 105.64 35.473C105.64 35.5663 105.605 35.648 105.535 35.718C105.469 35.788 105.39 35.823 105.297 35.823C104.214 35.837 103.516 35.844 103.204 35.844C103.204 35.998 103.201 36.285 103.197 36.705C103.192 37.1203 103.19 37.44 103.19 37.664C103.19 37.762 103.155 37.846 103.085 37.916C103.019 37.9813 102.938 38.014 102.84 38.014C102.742 38.014 102.658 37.9813 102.588 37.916C102.522 37.846 102.49 37.762 102.49 37.664Z" fill="#29292B"/>
<defs>
<linearGradient id="paint0_linear_47_4" x1="7.74566" y1="31.9953" x2="43.4198" y2="31.9953" gradientUnits="userSpaceOnUse">
<stop stop-color="#FFC940"/>
<stop offset="0.33125" stop-color="#FF7FA8"/>
<stop offset="0.607292" stop-color="#B797D7"/>
<stop offset="0.977083" stop-color="#73AEFC"/>
</linearGradient>
<linearGradient id="paint1_linear_47_4" x1="11.3744" y1="11.2392" x2="40.5689" y2="11.2392" gradientUnits="userSpaceOnUse">
<stop stop-color="#FFC940"/>
<stop offset="0.33125" stop-color="#FF7FA8"/>
<stop offset="0.607292" stop-color="#B797D7"/>
<stop offset="0.977083" stop-color="#73AEFC"/>
</linearGradient>
</defs>
</svg>
