<?xml version="1.0" standalone="no"?>
<!DOCTYPE svg PUBLIC "-//W3C//DTD SVG 20010904//EN"
 "http://www.w3.org/TR/2001/REC-SVG-20010904/DTD/svg10.dtd">
<svg version="1.0" xmlns="http://www.w3.org/2000/svg"
 width="200.000000pt" height="200.000000pt" viewBox="0 0 200.000000 200.000000"
 preserveAspectRatio="xMidYMid meet">
<metadata>
Created by potrace 1.14, written by Peter Selinger 2001-2017
</metadata>
<g transform="translate(0.000000,200.000000) scale(0.100000,-0.100000)"
fill="#000000" stroke="none">
<path d="M974 1993 c-12 -2 -40 -20 -63 -39 -81 -70 -89 -197 -20 -306 17 -27
32 -60 32 -73 0 -31 -26 -70 -61 -92 -15 -10 -29 -20 -32 -24 -9 -12 -103 -56
-220 -104 -177 -72 -207 -100 -188 -172 26 -99 203 -128 353 -57 79 37 130 95
183 205 26 54 53 98 60 98 7 1 17 -10 22 -25 78 -205 218 -314 405 -314 143 0
227 105 147 185 -29 29 -47 38 -190 95 -177 70 -264 121 -278 163 -11 32 -5
68 18 100 55 77 68 191 31 265 -35 71 -121 112 -199 95z"/>
<path d="M1000 1167 c0 -20 -75 -132 -114 -172 -32 -31 -137 -105 -151 -105
-3 0 -24 -9 -48 -19 -23 -11 -86 -37 -140 -58 -201 -80 -290 -184 -283 -330 9
-186 208 -320 405 -273 68 16 163 78 235 154 32 33 81 85 110 115 68 72 139
105 211 99 78 -7 145 -58 145 -112 0 -24 -48 -66 -76 -66 -15 0 -57 12 -92 26
-82 33 -115 27 -167 -26 -22 -22 -37 -40 -35 -41 3 0 17 -2 32 -4 48 -6 71
-16 163 -70 121 -70 180 -89 264 -83 154 11 270 133 275 291 9 230 -210 378
-462 313 -100 -25 -148 -56 -370 -234 -105 -84 -199 -106 -279 -65 -72 38 -87
124 -27 152 34 15 37 15 112 -18 89 -39 131 -45 163 -23 15 9 76 64 137 123
61 58 139 121 172 141 60 35 60 36 38 51 -55 36 -169 171 -189 224 -9 25 -29
31 -29 10z"/>
</g>
</svg>
