<svg width="1150" height="480" viewBox="0 0 1150 480" fill="none" xmlns="http://www.w3.org/2000/svg">
<path fill-rule="evenodd" clip-rule="evenodd" d="M1150 0H0V480H1150V0ZM141.6 306.4C141.867 317.867 142 326.933 142 333.6C142.267 341.333 145.2 347.867 150.8 353.2C156.4 358.533 163.067 361.067 170.8 360.8C178.533 360.533 185.067 357.6 190.4 352C195.733 346.4 198.267 339.733 198 332C197.733 322.4 197.6 307.2 197.6 286.4C197.6 265.6 197.467 252.133 197.2 246C206.267 230 218.667 210.133 234.4 186.4C263.733 142.133 279.2 118.667 280.8 116C285.067 109.333 286.267 102.267 284.4 94.8C282.533 87.3333 278.267 81.6 271.6 77.6C265.2 73.3333 258.267 72.1333 250.8 74C243.333 75.8667 237.6 80 233.6 86.4L188 155.2L166.4 188.8C135.2 137.067 115.2 103.333 106.4 87.6C102.667 80.6667 97.0667 76.1333 89.6 74C82.4 71.8666 75.3333 72.6666 68.4 76.4C61.7333 80.1333 57.3333 85.7333 55.2 93.2C53.0667 100.4 53.8667 107.333 57.6 114C67.2 132.133 81.8667 157.333 101.6 189.6L141.6 256V278.8V306.4ZM351.875 350.4C367.342 358.4 384.942 362.8 404.675 363.6C420.942 364.133 436.542 361.6 451.475 356C466.408 350.4 479.608 342.667 491.075 332.8C502.542 322.667 512.408 311.467 520.675 299.2C529.208 286.667 536.008 273.467 541.075 259.6C548.008 240.4 551.608 220.4 551.875 199.6C552.142 178.533 547.742 158.267 538.675 138.8C529.875 119.333 516.142 103.2 497.475 90.4C489.208 84.8 480.808 80.5333 472.275 77.6C463.742 74.6667 456.808 72.9333 451.475 72.4C446.408 71.8667 439.608 71.4667 431.075 71.2C428.942 71.2 426.942 71.0666 425.075 70.8C423.208 70.5333 420.142 70.4 415.875 70.4H407.475C398.942 70.4 391.342 71.2 384.675 72.8C367.875 77.6 352.808 85.6 339.475 96.8C326.142 107.733 315.475 120.4 307.475 134.8C299.742 148.933 293.875 163.867 289.875 179.6C285.875 195.333 284.142 212.267 284.675 230.4C284.942 246.667 287.608 262.4 292.675 277.6C297.742 292.533 304.942 306.4 314.275 319.2C323.875 332 336.408 342.4 351.875 350.4ZM454.275 290C439.608 303.067 423.875 309.333 407.075 308.8C386.808 308.267 370.808 300.4 359.075 285.2C347.342 270 341.208 251.067 340.675 228.4C340.142 203.067 345.208 181.467 355.875 163.6C366.808 145.467 381.742 132.933 400.675 126C404.408 124.667 408.008 124.267 411.475 124.8C415.208 124.8 417.742 125.067 419.075 125.6C420.408 125.867 422.542 126.133 425.475 126.4C428.408 126.667 430.808 126.8 432.675 126.8C434.542 126.8 437.075 126.933 440.275 127.2C443.475 127.467 446.542 128.133 449.475 129.2C452.675 130.267 455.342 131.467 457.475 132.8C459.875 133.867 462.808 135.6 466.275 138C480.142 147.6 489.208 161.467 493.475 179.6C498.008 197.733 496.142 218 487.875 240.4C480.408 260.4 469.208 276.933 454.275 290ZM772.044 349.2C788.844 341.2 803.644 329.467 816.444 314C826.844 301.467 833.644 289.2 836.844 277.2C837.91 272.4 838.577 266.933 838.844 260.8C839.377 254.4 839.51 248 839.244 241.6V232.4C839.51 224.133 836.71 217.2 830.844 211.6C825.244 206 818.577 203.2 810.844 203.2C783.644 203.2 759.244 203.6 737.644 204.4C729.91 204.667 723.51 207.6 718.444 213.2C713.377 218.8 710.977 225.467 711.244 233.2C711.51 240.933 714.444 247.333 720.044 252.4C725.644 257.467 732.31 259.867 740.044 259.6C761.644 258.533 776.31 258.133 784.044 258.4C783.777 260 783.377 261.733 782.844 263.6C782.044 267.333 778.977 272.267 773.644 278.4C762.177 292.267 747.777 300.8 730.444 304C713.11 306.933 696.177 304.267 679.644 296C663.377 287.733 650.844 274.933 642.044 257.6C633.51 239.467 630.977 221.333 634.444 203.2C637.91 184.8 646.577 168.667 660.444 154.8C673.777 140.933 689.11 132.533 706.444 129.6C723.777 126.4 741.777 129.6 760.444 139.2C763.377 141.067 765.777 142.8 767.644 144.4C769.777 145.733 771.91 147.6 774.044 150C776.444 152.4 778.177 154.4 779.244 156L785.644 164.8L793.644 175.2C798.444 181.333 804.577 184.933 812.044 186C819.51 187.067 826.31 185.333 832.444 180.8C838.577 176.267 842.177 170.267 843.244 162.8C844.31 155.067 842.577 148.133 838.044 142C836.977 140.667 834.577 137.467 830.844 132.4C827.11 127.333 824.31 123.733 822.444 121.6C820.577 119.2 817.777 116 814.044 112C810.31 108 806.31 104.4 802.044 101.2C798.044 97.7333 793.377 94.6667 788.044 92C768.31 80.2667 747.777 74 726.444 73.2C705.11 72.4 685.644 75.8667 668.044 83.6C650.71 91.0667 634.977 102 620.844 116.4C606.977 130.267 596.31 146.133 588.844 164C581.11 181.6 577.377 201.067 577.644 222.4C577.91 243.467 583.11 263.733 593.244 283.2C601.244 298.933 612.044 312.8 625.644 324.8C639.244 336.8 654.31 345.733 670.844 351.6C687.377 357.467 704.177 360.4 721.244 360.4C738.31 360.667 755.244 356.933 772.044 349.2ZM862.584 322.4C859.651 329.333 859.784 336.4 862.984 343.6C865.918 350.533 870.984 355.6 878.184 358.8C885.384 361.733 892.584 361.733 899.784 358.8C906.984 355.6 912.184 350.533 915.384 343.6L934.984 290.8C964.318 289.467 993.918 289.2 1023.78 290L1046.98 342.8C1049.92 349.733 1054.98 354.8 1062.18 358C1069.38 360.933 1076.58 360.933 1083.78 358C1091.25 355.067 1096.45 350.133 1099.38 343.2C1102.58 336 1102.72 328.8 1099.78 321.6L1072.18 249.6L1037.38 163.6L1007.78 90C1004.85 84.4 1000.45 80.1333 994.584 77.2C988.984 74 983.251 72.9333 977.384 74C971.784 74.2666 966.718 76 962.184 79.2C957.651 82.4 954.318 86.5333 952.184 91.6L862.584 322.4ZM1002.18 233.6H958.184L980.984 176L1002.18 233.6Z" fill="white"/>
</svg>
