<svg width="1150" height="480" fill="none" xmlns="http://www.w3.org/2000/svg"><path fill-rule="evenodd" clip-rule="evenodd" d="M1150 0H0v480h1150V0ZM141.6 306.4c.267 11.467.4 20.533.4 27.2.267 7.733 3.2 14.267 8.8 19.6 5.6 5.333 12.267 7.867 20 7.6 7.733-.267 14.267-3.2 19.6-8.8 5.333-5.6 7.867-12.267 7.6-20-.267-9.6-.4-24.8-.4-45.6s-.133-34.267-.4-40.4c9.067-16 21.467-35.867 37.2-59.6 29.333-44.267 44.8-67.733 46.4-70.4 4.267-6.667 5.467-13.733 3.6-21.2-1.867-7.467-6.133-13.2-12.8-17.2-6.4-4.267-13.333-5.467-20.8-3.6-7.467 1.867-13.2 6-17.2 12.4L188 155.2l-21.6 33.6c-31.2-51.733-51.2-85.467-60-101.2-3.733-6.933-9.333-11.467-16.8-13.6-7.2-2.133-14.267-1.333-21.2 2.4-6.667 3.733-11.067 9.333-13.2 16.8-2.133 7.2-1.333 14.133 2.4 20.8 9.6 18.133 24.267 43.333 44 75.6l40 66.4v50.4Zm210.275 44c15.467 8 33.067 12.4 52.8 13.2 16.267.533 31.867-2 46.8-7.6 14.933-5.6 28.133-13.333 39.6-23.2 11.467-10.133 21.333-21.333 29.6-33.6 8.533-12.533 15.333-25.733 20.4-39.6 6.933-19.2 10.533-39.2 10.8-60 .267-21.067-4.133-41.333-13.2-60.8-8.8-19.467-22.533-35.6-41.2-48.4-8.267-5.6-16.667-9.867-25.2-12.8-8.533-2.933-15.467-4.667-20.8-5.2-5.067-.533-11.867-.933-20.4-1.2-2.133 0-4.133-.133-6-.4s-4.933-.4-9.2-.4h-8.4c-8.533 0-16.133.8-22.8 2.4-16.8 4.8-31.867 12.8-45.2 24-13.333 10.933-24 23.6-32 38-7.733 14.133-13.6 29.067-17.6 44.8-4 15.733-5.733 32.667-5.2 50.8.267 16.267 2.933 32 8 47.2 5.067 14.933 12.267 28.8 21.6 41.6 9.6 12.8 22.133 23.2 37.6 31.2Zm102.4-60.4c-14.667 13.067-30.4 19.333-47.2 18.8-20.267-.533-36.267-8.4-48-23.6-11.733-15.2-17.867-34.133-18.4-56.8-.533-25.333 4.533-46.933 15.2-64.8 10.933-18.133 25.867-30.667 44.8-37.6 3.733-1.333 7.333-1.733 10.8-1.2 3.733 0 6.267.267 7.6.8 1.333.267 3.467.533 6.4.8 2.933.267 5.333.4 7.2.4s4.4.133 7.6.4c3.2.267 6.267.933 9.2 2 3.2 1.067 5.867 2.267 8 3.6 2.4 1.067 5.333 2.8 8.8 5.2 13.867 9.6 22.933 23.467 27.2 41.6 4.533 18.133 2.667 38.4-5.6 60.8-7.467 20-18.667 36.533-33.6 49.6Zm317.769 59.2c16.8-8 31.6-19.733 44.4-35.2 10.4-12.533 17.2-24.8 20.4-36.8 1.066-4.8 1.733-10.267 2-16.4.533-6.4.666-12.8.4-19.2v-9.2c.266-8.267-2.534-15.2-8.4-20.8-5.6-5.6-12.267-8.4-20-8.4-27.2 0-51.6.4-73.2 1.2-7.734.267-14.134 3.2-19.2 8.8-5.067 5.6-7.467 12.267-7.2 20 .266 7.733 3.2 14.133 8.8 19.2 5.6 5.067 12.266 7.467 20 7.2 21.6-1.067 36.266-1.467 44-1.2-.267 1.6-.667 3.333-1.2 5.2-.8 3.733-3.867 8.667-9.2 14.8-11.467 13.867-25.867 22.4-43.2 25.6-17.334 2.933-34.267.267-50.8-8-16.267-8.267-28.8-21.067-37.6-38.4-8.534-18.133-11.067-36.267-7.6-54.4 3.466-18.4 12.133-34.533 26-48.4 13.333-13.867 28.666-22.267 46-25.2 17.333-3.2 35.333 0 54 9.6 2.933 1.867 5.333 3.6 7.2 5.2 2.133 1.333 4.266 3.2 6.4 5.6 2.4 2.4 4.133 4.4 5.2 6l6.4 8.8 8 10.4c4.8 6.133 10.933 9.733 18.4 10.8 7.466 1.067 14.266-.667 20.4-5.2 6.133-4.533 9.733-10.533 10.8-18 1.066-7.733-.667-14.667-5.2-20.8-1.067-1.333-3.467-4.533-7.2-9.6-3.734-5.067-6.534-8.667-8.4-10.8-1.867-2.4-4.667-5.6-8.4-9.6-3.734-4-7.734-7.6-12-10.8-4-3.467-8.667-6.533-14-9.2-19.734-11.733-40.267-18-61.6-18.8-21.334-.8-40.8 2.667-58.4 10.4-17.334 7.467-33.067 18.4-47.2 32.8-13.867 13.867-24.534 29.733-32 47.6-7.734 17.6-11.467 37.067-11.2 58.4.266 21.067 5.466 41.333 15.6 60.8 8 15.733 18.8 29.6 32.4 41.6 13.6 12 28.666 20.933 45.2 26.8 16.533 5.867 33.333 8.8 50.4 8.8 17.066.267 34-3.467 50.8-11.2Zm90.54-26.8c-2.933 6.933-2.8 14 .4 21.2 2.934 6.933 8 12 15.2 15.2 7.2 2.933 14.4 2.933 21.6 0 7.2-3.2 12.4-8.267 15.6-15.2l19.6-52.8c29.334-1.333 58.934-1.6 88.796-.8l23.2 52.8c2.94 6.933 8 12 15.2 15.2 7.2 2.933 14.4 2.933 21.6 0 7.47-2.933 12.67-7.867 15.6-14.8 3.2-7.2 3.34-14.4.4-21.6l-27.6-72-34.8-86-29.6-73.6c-2.93-5.6-7.33-9.867-13.196-12.8-5.6-3.2-11.333-4.267-17.2-3.2-5.6.267-10.666 2-15.2 5.2-4.533 3.2-7.866 7.333-10 12.4l-89.6 230.8Zm139.596-88.8h-43.996l22.8-57.6 21.196 57.6Z" fill="#fff"/></svg>