<svg width="128" height="105" fill="none" xmlns="http://www.w3.org/2000/svg"><path d="M10.51 92.19c-.049-.348-.079-1.128-.09-2.34a64.144 64.144 0 0 0-.037-1.548l-2.88-4.734a52.692 52.692 0 0 1-1.224-2.16.851.851 0 0 1-.072-.684.886.886 0 0 1 .432-.54.851.851 0 0 1 .684-.072c.24.072.42.216.54.432.54 1.008 1.662 2.91 3.366 5.706.228-.372.57-.882 1.026-1.53.456-.648.768-1.11.936-1.386.084-.132.36-.606.828-1.422.348-.612.648-1.104.9-1.476a.834.834 0 0 1 .558-.378.86.86 0 0 1 .684.144c.204.132.33.324.378.576a.83.83 0 0 1-.144.666c-.156.24-.426.696-.81 1.368l-.846 1.458c-.216.336-.624.936-1.224 1.8-.6.852-1.032 1.554-1.296 2.106a.698.698 0 0 1-.036.09c.012.264.024.786.036 1.566.012 1.128.042 1.854.09 2.178a.85.85 0 0 1-.216.666.863.863 0 0 1-.612.324.857.857 0 0 1-.648-.198.911.911 0 0 1-.324-.612Zm10.89.864a5.896 5.896 0 0 1-1.71-.486 4.844 4.844 0 0 1-1.314-.918 6.431 6.431 0 0 1-.954-1.224 5.365 5.365 0 0 1-.576-1.422 12.998 12.998 0 0 1-.234-1.548 8.503 8.503 0 0 1 .45-3.348c.216-.588.504-1.14.864-1.656.36-.528.774-.972 1.242-1.332a4.627 4.627 0 0 1 1.674-.81 8.743 8.743 0 0 1 1.908-.288c.288-.012.588 0 .9.036.588.072 1.062.168 1.422.288.828.276 1.512.702 2.052 1.278a5.029 5.029 0 0 1 1.188 1.89c.24.684.36 1.416.36 2.196a8.504 8.504 0 0 1-.27 2.268 8.388 8.388 0 0 1-.846 2.142 5.915 5.915 0 0 1-1.512 1.764 6.03 6.03 0 0 1-2.16 1.044 6.386 6.386 0 0 1-2.484.126Zm.27-1.836c1.116.204 2.154-.03 3.114-.702.972-.672 1.608-1.68 1.908-3.024.18-.816.222-1.584.126-2.304-.096-.732-.348-1.368-.756-1.908-.408-.552-.9-.942-1.476-1.17a4.57 4.57 0 0 0-.666-.216 2.609 2.609 0 0 0-.576-.054c-.18 0-.378-.006-.594-.018a5.216 5.216 0 0 0-.9.054c-.684.084-1.386.51-2.106 1.278-.72.756-1.146 1.746-1.278 2.97a6.857 6.857 0 0 0 .126 2.394c.192.744.558 1.344 1.098 1.8.528.444 1.188.744 1.98.9Zm16.505 1.674c-1.248.384-2.58.258-3.996-.378-1.404-.636-2.436-1.5-3.096-2.592a6.648 6.648 0 0 1-.9-2.538c-.108-.888-.06-1.656.144-2.304.216-.66.546-1.332.99-2.016a7.312 7.312 0 0 1 1.566-1.746 6.359 6.359 0 0 1 2.124-1.08 5.706 5.706 0 0 1 2.34-.162c.804.108 1.608.438 2.412.99.816.54 1.554 1.29 2.214 2.25a.86.86 0 0 1 .144.684.88.88 0 0 1-.396.576.83.83 0 0 1-.666.144.898.898 0 0 1-.576-.378c-.516-.744-1.074-1.32-1.674-1.728-.588-.42-1.164-.66-1.728-.72a4.058 4.058 0 0 0-1.62.108 4.693 4.693 0 0 0-1.44.774 5.326 5.326 0 0 0-1.494 1.782c-.36.6-.54 1.296-.54 2.088s.222 1.566.666 2.322c.468.78 1.212 1.398 2.232 1.854 1.032.456 1.956.564 2.772.324a3.377 3.377 0 0 0 1.8-1.296 3.454 3.454 0 0 0 .684-2.124 91.337 91.337 0 0 0-3.42.108.887.887 0 0 1-.648-.234.887.887 0 0 1-.288-.63.911.911 0 0 1 .234-.666.86.86 0 0 1 .63-.306 92.47 92.47 0 0 1 4.356-.108c.252 0 .468.09.648.27.18.18.27.396.27.648v.126c.204 1.296-.054 2.52-.774 3.672-.708 1.14-1.698 1.902-2.97 2.286Zm6.325-.432a.87.87 0 0 1-.504.504.891.891 0 0 1-.702 0 .879.879 0 0 1-.486-.486.891.891 0 0 1 0-.702c.24-.588.552-1.482.936-2.682.396-1.2.678-2.01.846-2.43.084-.24.426-1.092 1.026-2.556a98.892 98.892 0 0 0 1.314-3.51.885.885 0 0 1 .45-.522.847.847 0 0 1 .702-.054c.108.036.204.09.288.162a.81.81 0 0 1 .504.486l4.482 11.07c.096.24.096.48 0 .72a.875.875 0 0 1-.504.486.891.891 0 0 1-.702 0 .879.879 0 0 1-.486-.486l-1.35-3.492a109.377 109.377 0 0 1-4.644.126c-.54 1.584-.93 2.706-1.17 3.366Zm1.836-5.202c1.008-.012 2.088-.036 3.24-.072l-1.638-3.96-1.602 4.032Zm20.914 5.634c-1.248.384-2.58.258-3.996-.378-1.404-.636-2.436-1.5-3.096-2.592a6.648 6.648 0 0 1-.9-2.538c-.108-.888-.06-1.656.144-2.304.216-.66.546-1.332.99-2.016a7.312 7.312 0 0 1 1.566-1.746 6.359 6.359 0 0 1 2.124-1.08 5.706 5.706 0 0 1 2.34-.162c.804.108 1.608.438 2.412.99.816.54 1.554 1.29 2.214 2.25a.86.86 0 0 1 .144.684.88.88 0 0 1-.396.576.83.83 0 0 1-.666.144.898.898 0 0 1-.576-.378c-.516-.744-1.074-1.32-1.674-1.728-.588-.42-1.164-.66-1.728-.72a4.058 4.058 0 0 0-1.62.108 4.693 4.693 0 0 0-1.44.774 5.326 5.326 0 0 0-1.494 1.782c-.36.6-.54 1.296-.54 2.088s.222 1.566.666 2.322c.468.78 1.212 1.398 2.232 1.854 1.032.456 1.956.564 2.772.324a3.377 3.377 0 0 0 1.8-1.296 3.454 3.454 0 0 0 .684-2.124 91.337 91.337 0 0 0-3.42.108.887.887 0 0 1-.648-.234.887.887 0 0 1-.288-.63.911.911 0 0 1 .234-.666.86.86 0 0 1 .63-.306 92.47 92.47 0 0 1 4.356-.108c.252 0 .468.09.648.27.18.18.27.396.27.648v.126c.204 1.296-.054 2.52-.774 3.672-.708 1.14-1.698 1.902-2.97 2.286Zm6.324-.432a.87.87 0 0 1-.504.504.891.891 0 0 1-.702 0 .879.879 0 0 1-.486-.486.891.891 0 0 1 0-.702c.24-.588.552-1.482.936-2.682.396-1.2.678-2.01.846-2.43.084-.24.426-1.092 1.026-2.556a98.892 98.892 0 0 0 1.314-3.51.885.885 0 0 1 .45-.522.847.847 0 0 1 .702-.054c.108.036.204.09.288.162a.81.81 0 0 1 .504.486l4.482 11.07c.096.24.096.48 0 .72a.875.875 0 0 1-.504.486.891.891 0 0 1-.702 0 .879.879 0 0 1-.486-.486l-1.35-3.492a109.377 109.377 0 0 1-4.644.126c-.54 1.584-.93 2.706-1.17 3.366Zm1.836-5.202c1.008-.012 2.088-.036 3.24-.072l-1.638-3.96-1.602 4.032Zm21.03 4.896a.887.887 0 0 1-.288.63.853.853 0 0 1-.648.234.887.887 0 0 1-.63-.288.853.853 0 0 1-.234-.648c.048-.36.066-1.794.054-4.302-.012-2.508-.018-3.942-.018-4.302-.924 1.2-1.992 2.736-3.204 4.608a.828.828 0 0 1-.576.396.869.869 0 0 1-.666-.126c-.012-.012-.024-.018-.036-.018a1.087 1.087 0 0 1-.27-.252c-.504-.708-1.356-1.782-2.556-3.222l-1.17-1.404c.036.9.054 1.932.054 3.096 0 .576-.012 1.482-.036 2.718a314.078 314.078 0 0 0-.018 2.808c0 .252-.09.468-.27.648a.855.855 0 0 1-.63.252.916.916 0 0 1-.648-.252.916.916 0 0 1-.252-.648c0-.636.006-1.572.018-2.808.024-1.236.036-2.148.036-2.736 0-2.244-.072-4.05-.216-5.418a.884.884 0 0 1 .198-.666c.156-.192.36-.3.612-.324.12-.012.234 0 .342.036a.907.907 0 0 1 .684.342l2.682 3.186c.756.9 1.392 1.686 1.908 2.358 1.608-2.448 3.006-4.314 4.194-5.598.048-.048.096-.09.144-.126a.88.88 0 0 1 .666-.252.887.887 0 0 1 .63.288c.168.18.246.396.234.648-.048 1.26-.066 3.132-.054 5.616.024 2.472.012 4.314-.036 5.526Zm11.975.774c-1.62.024-4.17.006-7.65-.054-.24 0-.45-.09-.63-.27a.895.895 0 0 1-.252-.63.994.994 0 0 1-.108-.45c.024-.816.036-1.992.036-3.528s.006-2.58.018-3.132c0-.204-.006-.558-.018-1.062-.012-.516-.012-.99 0-1.422a9.77 9.77 0 0 1 .108-1.242.832.832 0 0 1 .216-.45.913.913 0 0 1 .432-.27.89.89 0 0 1 .576-.234c.888-.024 2.154-.042 3.798-.054 1.656-.012 2.784-.018 3.384-.018.252 0 .462.09.63.27.18.168.27.378.27.63s-.09.468-.27.648a.855.855 0 0 1-.63.252c-.636 0-1.71.006-3.222.018-1.5.012-2.658.024-3.474.036-.036.168-.048.63-.036 1.386.024.744.036 1.26.036 1.548v.738a30.699 30.699 0 0 1 1.872-.054c.672 0 1.428.006 2.268.018.852.012 1.482.018 1.89.018.252 0 .462.09.63.27.18.168.27.378.27.63s-.09.468-.27.648a.855.855 0 0 1-.63.252c-.42 0-1.056-.006-1.908-.018-.84-.012-1.59-.018-2.25-.018-.66 0-1.29.018-1.89.054 0 1.704-.006 2.922-.018 3.654 2.928.048 5.19.06 6.786.036.252 0 .468.084.648.252.18.168.27.378.27.63a.916.916 0 0 1-.252.648.826.826 0 0 1-.63.27Zm6.844.252c-.852 0-1.62-.162-2.304-.486-.684-.336-1.224-.792-1.62-1.368a3.573 3.573 0 0 1-.576-1.998c0-.288.09-.516.27-.684a.945.945 0 0 1 .666-.27c.192 0 .366.06.522.18.156.12.252.3.288.54.168 1.548 1.164 2.322 2.988 2.322.876 0 1.566-.192 2.07-.576.504-.384.756-.876.756-1.476 0-.36-.174-.66-.522-.9-.348-.252-.822-.474-1.422-.666l-.558-.198c-1.188-.396-2.04-.72-2.556-.972-.744-.372-1.302-.81-1.674-1.314-.36-.504-.54-1.098-.54-1.782 0-.6.192-1.176.576-1.728.384-.552.918-.996 1.602-1.332.696-.348 1.47-.522 2.322-.522.888 0 1.68.162 2.376.486.696.324 1.236.756 1.62 1.296.384.54.576 1.116.576 1.728 0 .312-.09.558-.27.738a.855.855 0 0 1-.63.252.833.833 0 0 1-.612-.252c-.168-.18-.252-.414-.252-.702 0-.3-.132-.588-.396-.864-.252-.288-.6-.516-1.044-.684a3.661 3.661 0 0 0-1.422-.27c-.888 0-1.548.156-1.98.468-.432.3-.66.72-.684 1.26-.012.288.078.54.27.756.192.216.492.438.9.666.384.204.792.396 1.224.576.432.168 1.008.372 1.728.612.96.324 1.722.75 2.286 1.278.576.516.864 1.188.864 2.016 0 .768-.228 1.446-.684 2.034-.456.588-1.056 1.044-1.8 1.368a5.95 5.95 0 0 1-2.358.468Z" fill="#303030"/><path d="M85.993 48.03c3.477 1.634 5.679 4.087 6.722 6.811C95.612 62.197 90.59 71.5 81.629 71.5c-7.88 0-11.395-6.228-17.19-6.267-.309 0-.618.013-.927.04.618-.624 1.314-1.324 2.048-2.103 4.75-5.02 8.961 3.776 12.708-1.05 2.086-2.647-3.245-7.94-9.734-4.866-6.026 2.88-6.103 7.785-14.988 12.806-1.776.817-3.824 1.44-6.257 1.44-12.902 0-19.932-17.048-3.052-23.82 5.176-2.063 9.078-3.309 12.4-5.527 5.678-3.737 7.802-10.042 7.802-10.042 1.546 3.542 5.06 8.212 9.194 11.053-3.593 1.246-7.3 4.554-13.481 10.743-5.022 5.02-10.198-4.36-13.597.272-1.97 2.725 2.55 8.018 9.695 5.06 5.408-2.257 11.589-11.871 22.134-12.494 2.897-.155 5.678.39 7.61 1.285Z" fill="url(#a)"/><path d="M88.813 32.305c-1.274 5.488-13.558 5.45-19.43-1.751-3.36-4.087-3.862-8.213-4.673-8.213-.734 0-2.009 4.632-4.635 8.213-5.486 7.512-18.194 7.24-19.469 1.751-.888-3.814 2.511-4.515 8.267-6.967 1.854-.778 4.48-1.712 6.72-2.958 8.846-5.02 4.288-6.89 3.014-10.003-.85-1.985-1.43-3.892-.734-6.5.966-3.892 3.863-5.721 6.682-5.8 2.936-.077 6.103 1.752 7.03 5.761.696 3.036.078 4.515-.733 6.54-1.352 3.347-5.679 5.837 2.974 10.002 9.657 4.593 16.185 4.904 14.987 9.925Z" fill="url(#b)"/><defs><linearGradient id="a" x1="36.211" y1="51.805" x2="93.536" y2="51.805" gradientUnits="userSpaceOnUse"><stop stop-color="#FFC940"/><stop offset=".331" stop-color="#FF7FA8"/><stop offset=".607" stop-color="#B797D7"/><stop offset=".977" stop-color="#73AEFC"/></linearGradient><linearGradient id="b" x1="42.042" y1="18.198" x2="88.955" y2="18.198" gradientUnits="userSpaceOnUse"><stop stop-color="#FFC940"/><stop offset=".331" stop-color="#FF7FA8"/><stop offset=".607" stop-color="#B797D7"/><stop offset=".977" stop-color="#73AEFC"/></linearGradient></defs></svg>