<svg width="50" height="50" fill="none" xmlns="http://www.w3.org/2000/svg"><path d="M38.726 30.245c2.163 1.03 3.534 2.574 4.183 4.29 1.803 4.632-1.322 10.49-6.9 10.49-4.903 0-7.09-3.922-10.696-3.947a6.94 6.94 0 0 0-.577.025c.384-.392.817-.833 1.274-1.324 2.956-3.161 5.577 2.378 7.908-.661 1.299-1.667-2.019-5-6.057-3.064-3.75 1.814-3.798 4.902-9.327 8.064-1.106.514-2.38.907-3.894.907-8.03 0-12.404-10.736-1.9-15 3.222-1.3 5.65-2.084 7.717-3.48 3.534-2.354 4.856-6.324 4.856-6.324.961 2.23 3.149 5.171 5.72 6.96-2.235.785-4.543 2.868-8.389 6.765-3.125 3.162-6.346-2.745-8.461.172-1.226 1.715 1.586 5.049 6.034 3.186 3.365-1.422 7.211-7.476 13.773-7.868 1.803-.098 3.534.245 4.736.81Z" fill="url(#a)"/><path d="M40.48 20.343c-.792 3.456-8.437 3.432-12.09-1.103-2.092-2.573-2.404-5.171-2.91-5.171-.456 0-1.25 2.916-2.884 5.171-3.413 4.73-11.322 4.56-12.115 1.103-.553-2.402 1.562-2.843 5.144-4.387 1.154-.49 2.789-1.079 4.183-1.863 5.505-3.162 2.668-4.338 1.875-6.299-.53-1.25-.89-2.45-.457-4.093.601-2.45 2.404-3.603 4.159-3.652C27.212 0 29.183 1.152 29.76 3.677c.432 1.911.048 2.843-.457 4.117-.841 2.108-3.534 3.677 1.85 6.3 6.01 2.891 10.073 3.088 9.328 6.25Z" fill="url(#b)"/><defs><linearGradient id="a" x1="7.746" y1="32.623" x2="43.42" y2="32.623" gradientUnits="userSpaceOnUse"><stop stop-color="#FFC940"/><stop offset=".331" stop-color="#FF7FA8"/><stop offset=".607" stop-color="#B797D7"/><stop offset=".977" stop-color="#73AEFC"/></linearGradient><linearGradient id="b" x1="11.374" y1="11.46" x2="40.569" y2="11.46" gradientUnits="userSpaceOnUse"><stop stop-color="#FFC940"/><stop offset=".331" stop-color="#FF7FA8"/><stop offset=".607" stop-color="#B797D7"/><stop offset=".977" stop-color="#73AEFC"/></linearGradient></defs></svg>