<svg width="108" height="50" fill="none" xmlns="http://www.w3.org/2000/svg"><path d="M38.726 29.663c2.163 1.01 3.534 2.525 4.183 4.207 1.803 4.544-1.322 10.289-6.9 10.289-4.903 0-7.09-3.846-10.696-3.87-.193 0-.385.008-.577.024.384-.385.817-.818 1.274-1.299 2.956-3.1 5.577 2.332 7.908-.649 1.299-1.634-2.019-4.903-6.057-3.004-3.75 1.779-3.798 4.807-9.327 7.908-1.106.505-2.38.89-3.894.89-8.03 0-12.404-10.53-1.9-14.712 3.222-1.274 5.65-2.043 7.717-3.413 3.534-2.308 4.856-6.202 4.856-6.202.961 2.187 3.149 5.072 5.72 6.827-2.235.769-4.543 2.812-8.389 6.634-3.125 3.101-6.346-2.692-8.461.169-1.226 1.682 1.586 4.951 6.034 3.125 3.365-1.395 7.211-7.332 13.773-7.717 1.803-.096 3.534.24 4.736.793Z" fill="url(#a)"/><path d="M40.48 19.952c-.792 3.39-8.437 3.365-12.09-1.082-2.092-2.524-2.404-5.072-2.91-5.072-.456 0-1.25 2.86-2.884 5.072-3.413 4.64-11.322 4.471-12.115 1.082-.553-2.356 1.562-2.789 5.144-4.303 1.154-.48 2.789-1.058 4.183-1.827 5.505-3.1 2.668-4.255 1.875-6.178-.53-1.226-.89-2.404-.457-4.014.601-2.404 2.404-3.534 4.159-3.582C27.212 0 29.183 1.13 29.76 3.606c.432 1.875.048 2.788-.457 4.038-.841 2.068-3.534 3.606 1.85 6.178 6.01 2.837 10.073 3.029 9.328 6.13Z" fill="url(#b)"/><path d="M47.952 26.46c-.032-.232-.052-.752-.06-1.56a42.763 42.763 0 0 0-.024-1.032l-1.92-3.156a35.128 35.128 0 0 1-.816-1.44.568.568 0 0 1-.048-.456.59.59 0 0 1 .288-.36.568.568 0 0 1 .456-.048.59.59 0 0 1 .36.288c.36.672 1.108 1.94 2.244 3.804.152-.248.38-.588.684-1.02.304-.432.512-.74.624-.924.056-.088.24-.404.552-.948.232-.408.432-.736.6-.984a.556.556 0 0 1 .372-.252c.168-.032.32 0 .456.096.136.088.22.216.252.384.032.16 0 .308-.096.444-.104.16-.284.464-.54.912l-.564.972c-.144.224-.416.624-.816 1.2-.4.568-.688 1.036-.864 1.404a.466.466 0 0 1-.024.06c.008.176.016.524.024 1.044.008.752.028 1.236.06 1.452a.567.567 0 0 1-.144.444.575.575 0 0 1-.408.216.571.571 0 0 1-.432-.132.608.608 0 0 1-.216-.408Zm7.26.576a3.93 3.93 0 0 1-1.14-.324 3.23 3.23 0 0 1-.875-.612 4.287 4.287 0 0 1-.636-.816 3.577 3.577 0 0 1-.384-.948 8.665 8.665 0 0 1-.156-1.032 5.669 5.669 0 0 1 .3-2.232c.144-.392.336-.76.576-1.104a3.83 3.83 0 0 1 .828-.888c.32-.248.692-.428 1.116-.54a5.828 5.828 0 0 1 1.272-.192 5.018 5.018 0 0 1 1.548.216 3.24 3.24 0 0 1 1.368.852c.368.376.632.796.792 1.26.16.456.24.944.24 1.464a5.67 5.67 0 0 1-.18 1.512c-.12.496-.308.972-.564 1.428a3.943 3.943 0 0 1-1.008 1.176 4.02 4.02 0 0 1-1.44.696 4.257 4.257 0 0 1-1.656.084Zm.18-1.224c.745.136 1.437-.02 2.077-.468.648-.448 1.072-1.12 1.272-2.016.12-.544.148-1.056.084-1.536a2.638 2.638 0 0 0-.504-1.272 2.244 2.244 0 0 0-.984-.78 3.047 3.047 0 0 0-.444-.144 1.74 1.74 0 0 0-.384-.036c-.12 0-.252-.004-.396-.012a3.477 3.477 0 0 0-.6.036c-.456.056-.924.34-1.404.852-.48.504-.764 1.164-.852 1.98-.064.568-.036 1.1.084 1.596.128.496.372.896.732 1.2.352.296.792.496 1.32.6Zm11.004 1.116c-.832.256-1.72.172-2.664-.252-.936-.424-1.624-1-2.064-1.728-.32-.536-.52-1.1-.6-1.692-.072-.592-.04-1.104.096-1.536a5.79 5.79 0 0 1 .66-1.344 4.875 4.875 0 0 1 1.044-1.164 4.24 4.24 0 0 1 1.416-.72 3.804 3.804 0 0 1 1.56-.108c.536.072 1.072.292 1.608.66.544.36 1.036.86 1.476 1.5a.574.574 0 0 1 .096.456.587.587 0 0 1-.264.384.553.553 0 0 1-.444.096.599.599 0 0 1-.384-.252c-.344-.496-.716-.88-1.116-1.152-.392-.28-.776-.44-1.152-.48a2.705 2.705 0 0 0-1.08.072 3.129 3.129 0 0 0-.96.516 3.55 3.55 0 0 0-.996 1.188c-.24.4-.36.864-.36 1.392 0 .528.148 1.044.444 1.548.312.52.808.932 1.488 1.236.688.304 1.304.376 1.848.216.496-.152.896-.44 1.2-.864.312-.432.464-.904.456-1.416-.704.008-1.464.032-2.28.072a.591.591 0 0 1-.624-.576.607.607 0 0 1 .156-.444.574.574 0 0 1 .42-.204 61.646 61.646 0 0 1 2.904-.072.59.59 0 0 1 .432.18c.12.12.18.264.18.432v.084c.136.864-.036 1.68-.516 2.448a3.428 3.428 0 0 1-1.98 1.524Zm4.217-.288a.58.58 0 0 1-.336.336.594.594 0 0 1-.468 0 .586.586 0 0 1-.324-.324.594.594 0 0 1 0-.468c.16-.392.368-.988.624-1.788.264-.8.452-1.34.564-1.62.056-.16.284-.728.684-1.704.376-.96.668-1.74.876-2.34a.59.59 0 0 1 .3-.348.565.565 0 0 1 .468-.036c.072.024.136.06.192.108a.54.54 0 0 1 .336.324l2.988 7.38c.064.16.064.32 0 .48a.583.583 0 0 1-.336.324.594.594 0 0 1-.468 0 .586.586 0 0 1-.324-.324l-.9-2.328a72.918 72.918 0 0 1-3.096.084c-.36 1.056-.62 1.804-.78 2.244Zm1.224-3.468c.672-.008 1.392-.024 2.16-.048l-1.092-2.64-1.068 2.688Zm11.662-.264-1.248 1.032c.008.936.028 1.748.06 2.436a.607.607 0 0 1-.156.444.551.551 0 0 1-.408.192.633.633 0 0 1-.444-.144.591.591 0 0 1-.192-.42c-.024-.48-.04-.952-.048-1.416-.008-.576-.012-1.164-.012-1.764 0-.6-.004-1.068-.012-1.404 0-.208-.016-.636-.048-1.284a23.898 23.898 0 0 1-.036-1.572.55.55 0 0 1 .18-.42.61.61 0 0 1 .432-.168.55.55 0 0 1 .42.18.61.61 0 0 1 .168.432c-.008.384.004.896.036 1.536s.048 1.064.048 1.272c0 .176.004.364.012.564 1.256-1.048 2.56-2.308 3.912-3.78a.591.591 0 0 1 .42-.192.569.569 0 0 1 .432.156c.12.112.184.252.192.42a.569.569 0 0 1-.156.432 38.222 38.222 0 0 1-2.652 2.676l3.084 3.924a.551.551 0 0 1 .12.444.565.565 0 0 1-.216.396.551.551 0 0 1-.444.12.565.565 0 0 1-.396-.216l-3.048-3.876Zm5.154 4.116a.569.569 0 0 1-.432-.156.622.622 0 0 1-.192-.42.569.569 0 0 1 .156-.432c.12-.12.26-.184.42-.192l.264-.012c0-2.488-.008-4.556-.024-6.204h-.192a.55.55 0 0 1-.42-.18.61.61 0 0 1-.168-.432.55.55 0 0 1 .18-.42.61.61 0 0 1 .432-.168c.408.008.904.016 1.488.024.16 0 .296.06.408.18.12.12.18.264.18.432 0 .16-.06.3-.18.42a.61.61 0 0 1-.432.168h-.096c.016 1.64.024 3.696.024 6.168h.24a.55.55 0 0 1 .42.18.55.55 0 0 1 .18.42.59.59 0 0 1-.18.432.57.57 0 0 1-.42.168c-.616 0-1.168.008-1.656.024Zm4.507 0a.556.556 0 0 1-.336-.084.615.615 0 0 1-.312-.216.674.674 0 0 1-.108-.372c0-.256.02-1.508.06-3.756a32.29 32.29 0 0 0-.036-1.764 20.771 20.771 0 0 1-.012-1.848.591.591 0 0 1 .624-.576h.048a.585.585 0 0 1 .228-.072c.368-.032.66-.052.876-.06.216-.016.52-.024.912-.024s.728.028 1.008.084c.28.048.588.132.924.252a3.498 3.498 0 0 1 2.136 2.04c.264.632.384 1.3.36 2.004a5.276 5.276 0 0 1-.456 1.968 4.139 4.139 0 0 1-1.188 1.536c-.6.48-1.412.76-2.436.84-.304.024-.704.036-1.2.036-.536 0-.9.004-1.092.012Zm1.092-1.212c.472 0 .84-.012 1.104-.036.728-.056 1.3-.248 1.716-.576a2.92 2.92 0 0 0 .84-1.116c.216-.472.332-.972.348-1.5a3.401 3.401 0 0 0-.24-1.464 2.477 2.477 0 0 0-.84-1.08 2.893 2.893 0 0 0-1.056-.468 4.55 4.55 0 0 0-1.212-.12c-.392.008-.828.032-1.308.072-.008.232 0 .652.024 1.26.032.872.044 1.484.036 1.836 0 .24-.004.576-.012 1.008l-.024 1.176c-.008.36-.012.696-.012 1.008h.636Zm9.26 1.308c-.568 0-1.08-.108-1.536-.324a2.751 2.751 0 0 1-1.08-.912 2.382 2.382 0 0 1-.384-1.332c0-.192.06-.344.18-.456a.63.63 0 0 1 .444-.18.531.531 0 0 1 .54.48c.112 1.032.776 1.548 1.992 1.548.584 0 1.044-.128 1.38-.384.336-.256.504-.584.504-.984 0-.24-.116-.44-.348-.6-.232-.168-.548-.316-.948-.444l-.372-.132c-.792-.264-1.36-.48-1.704-.648-.496-.248-.868-.54-1.116-.876a1.99 1.99 0 0 1-.36-1.188c0-.4.128-.784.384-1.152a2.737 2.737 0 0 1 1.068-.888c.464-.232.98-.348 1.548-.348.592 0 1.12.108 1.584.324.464.216.824.504 1.08.864.256.36.384.744.384 1.152 0 .208-.06.372-.18.492a.57.57 0 0 1-.42.168.555.555 0 0 1-.408-.168.658.658 0 0 1-.168-.468c0-.2-.088-.392-.264-.576a1.704 1.704 0 0 0-.696-.456 2.44 2.44 0 0 0-.948-.18c-.592 0-1.032.104-1.32.312-.288.2-.44.48-.456.84a.689.689 0 0 0 .18.504c.128.144.328.292.6.444.256.136.528.264.816.384.288.112.672.248 1.152.408.64.216 1.148.5 1.524.852.384.344.576.792.576 1.344 0 .512-.152.964-.456 1.356a3.001 3.001 0 0 1-1.2.912 3.967 3.967 0 0 1-1.572.312Zm-54.398 8.493-.728.602c.005.546.016 1.02.035 1.421a.354.354 0 0 1-.091.259.322.322 0 0 1-.238.112.37.37 0 0 1-.259-.084.345.345 0 0 1-.112-.245c-.014-.28-.023-.555-.028-.826a73.602 73.602 0 0 1-.007-1.029c0-.35-.002-.623-.007-.819 0-.121-.01-.371-.028-.749a13.894 13.894 0 0 1-.021-.917.32.32 0 0 1 .105-.245.356.356 0 0 1 .252-.098.32.32 0 0 1 .245.105c.065.07.098.154.098.252-.005.224.002.523.021.896.019.373.028.62.028.742 0 .103.002.212.007.329a24.113 24.113 0 0 0 2.282-2.205.345.345 0 0 1 .245-.112.332.332 0 0 1 .252.091c.07.065.107.147.112.245a.332.332 0 0 1-.091.252 22.29 22.29 0 0 1-1.547 1.561l1.799 2.289c.06.075.084.161.07.259a.33.33 0 0 1-.126.231.321.321 0 0 1-.259.07.33.33 0 0 1-.231-.126l-1.778-2.261Zm6.654 2.408a.287.287 0 0 1-.091-.014.34.34 0 0 1-.336-.119 12.19 12.19 0 0 1-.4-.518 15.736 15.736 0 0 1-.335-.504l-.35-.553-.322-.504a25.554 25.554 0 0 0-1.092-1.547c-.005.392.002.966.02 1.722.024.756.036 1.314.036 1.673a.344.344 0 0 1-.105.252.332.332 0 0 1-.245.098.356.356 0 0 1-.252-.098.356.356 0 0 1-.098-.252c0-.28-.012-.912-.035-1.897-.024-.99-.026-1.75-.007-2.282a.764.764 0 0 1 .049-.217.514.514 0 0 1 .14-.196.38.38 0 0 1 .259-.063c.098.01.177.051.238.126a27.807 27.807 0 0 1 1.68 2.303l.287.455.329.518.287.427c.023-1.554.028-2.714.014-3.479 0-.098.032-.182.098-.252a.321.321 0 0 1 .245-.105c.098 0 .182.033.252.098s.105.147.105.245c.01.583.002 2.03-.021 4.34a.348.348 0 0 1-.35.343Zm3.191 0a2.295 2.295 0 0 1-.665-.189 1.883 1.883 0 0 1-.51-.357 2.5 2.5 0 0 1-.372-.476 2.086 2.086 0 0 1-.224-.553 5.062 5.062 0 0 1-.09-.602 3.309 3.309 0 0 1 .175-1.302c.083-.229.195-.443.335-.644.14-.205.301-.378.483-.518.187-.145.404-.25.651-.315a3.4 3.4 0 0 1 .742-.112 2.924 2.924 0 0 1 .903.126c.322.107.588.273.798.497.215.22.37.464.462.735.094.266.14.55.14.854.005.299-.03.593-.105.882-.07.29-.18.567-.329.833a2.287 2.287 0 0 1-.588.686 2.345 2.345 0 0 1-.84.406c-.312.08-.634.096-.966.049Zm.105-.714a1.55 1.55 0 0 0 1.211-.273c.378-.261.626-.653.742-1.176a2.57 2.57 0 0 0 .05-.896 1.538 1.538 0 0 0-.295-.742 1.309 1.309 0 0 0-.574-.455 1.777 1.777 0 0 0-.259-.084 1.014 1.014 0 0 0-.224-.021c-.07 0-.147-.002-.23-.007a2.022 2.022 0 0 0-.35.021c-.267.033-.54.198-.82.497-.28.294-.445.679-.497 1.155-.037.331-.02.642.05.931.074.29.216.523.426.7.206.173.462.29.77.35Zm4.385.686a.321.321 0 0 1-.245-.266.523.523 0 0 1-.035-.091 68.966 68.966 0 0 0-1.078-4.228.331.331 0 0 1 .028-.266.344.344 0 0 1 .21-.168.331.331 0 0 1 .266.028c.084.047.14.117.168.21.299 1.055.574 2.16.826 3.318l.546-1.652c.238-.686.415-1.213.532-1.582a.356.356 0 0 1 .07-.196.358.358 0 0 1 .182-.126.115.115 0 0 1 .063-.014.323.323 0 0 1 .273.14.32.32 0 0 1 .07.203c.322.99.688 2.123 1.1 3.402l1.007-3.521a.345.345 0 0 1 .168-.21.335.335 0 0 1 .266-.028.34.34 0 0 1 .21.175c.047.084.056.17.028.259l-1.316 4.375a.34.34 0 0 1-.175.203.331.331 0 0 1-.266.028.357.357 0 0 1-.196-.154.432.432 0 0 1-.077-.126 260.578 260.578 0 0 1-1.106-3.374l-.259.938-.308.875-.252.763c-.103.313-.191.595-.266.847a.345.345 0 0 1-.168.21.331.331 0 0 1-.266.028Zm7.996-.308a9.463 9.463 0 0 1-.035-.91c-.005-.299-.01-.5-.014-.602l-1.12-1.841a20.33 20.33 0 0 1-.476-.84.331.331 0 0 1-.028-.266.345.345 0 0 1 .168-.21.33.33 0 0 1 .266-.028.345.345 0 0 1 .21.168c.21.392.646 1.132 1.309 2.219.088-.145.221-.343.399-.595.177-.252.298-.432.364-.539.032-.051.14-.236.322-.553a8.9 8.9 0 0 1 .35-.574.324.324 0 0 1 .217-.147.335.335 0 0 1 .266.056.33.33 0 0 1 .147.224c.018.093 0 .18-.056.259-.061.093-.166.27-.315.532l-.33.567c-.083.13-.242.364-.475.7a6.035 6.035 0 0 0-.504.819.285.285 0 0 1-.014.035c.004.103.009.306.014.609.004.439.016.721.035.847a.33.33 0 0 1-.084.259.335.335 0 0 1-.238.126.333.333 0 0 1-.252-.077.354.354 0 0 1-.126-.238Zm4.235.336a2.295 2.295 0 0 1-.665-.189 1.883 1.883 0 0 1-.51-.357 2.5 2.5 0 0 1-.372-.476 2.086 2.086 0 0 1-.224-.553 5.062 5.062 0 0 1-.09-.602 3.309 3.309 0 0 1 .175-1.302c.083-.229.195-.443.335-.644.14-.205.301-.378.483-.518.187-.145.404-.25.651-.315a3.4 3.4 0 0 1 .742-.112 2.924 2.924 0 0 1 .903.126c.322.107.588.273.798.497.215.22.369.464.462.735.093.266.14.55.14.854.005.299-.03.593-.105.882-.07.29-.18.567-.329.833-.15.266-.345.495-.588.686a2.345 2.345 0 0 1-.84.406c-.313.08-.635.096-.966.049Zm.105-.714a1.55 1.55 0 0 0 1.211-.273c.378-.261.625-.653.742-1.176a2.57 2.57 0 0 0 .05-.896 1.538 1.538 0 0 0-.295-.742 1.309 1.309 0 0 0-.574-.455 1.777 1.777 0 0 0-.259-.084 1.014 1.014 0 0 0-.224-.021c-.07 0-.147-.002-.23-.007a2.022 2.022 0 0 0-.35.021c-.267.033-.54.198-.82.497-.28.294-.446.679-.497 1.155-.037.331-.02.642.05.931.074.29.216.523.426.7.205.173.462.29.77.35Zm3.87-.126c-.136-.2-.227-.5-.274-.896a8.177 8.177 0 0 1-.02-1.043c.008-.261.027-.614.055-1.057.033-.443.052-.73.056-.861a.32.32 0 0 1 .105-.245.356.356 0 0 1 .252-.098.32.32 0 0 1 .245.105c.066.07.098.154.098.252a28.43 28.43 0 0 1-.056.861 42.44 42.44 0 0 0-.056 1.064c-.014.373-.007.688.021.945.028.285.077.478.147.581.163.233.385.39.665.469.28.075.558.063.833-.035.28-.098.497-.266.651-.504.252-.373.385-.884.4-1.533a14.03 14.03 0 0 0-.022-.924 74.18 74.18 0 0 1-.049-.924c0-.098.033-.182.098-.252a.321.321 0 0 1 .245-.105c.098 0 .182.033.252.098s.105.147.105.245l.042.896c.024.401.033.73.028.987-.019.78-.189 1.414-.51 1.904a1.87 1.87 0 0 1-.715.63c-.294.154-.597.24-.91.259a1.993 1.993 0 0 1-.93-.175 1.8 1.8 0 0 1-.757-.644Zm8.157.077-.126-.35a2.182 2.182 0 0 0-.23-.56.86.86 0 0 0-.386-.294c-.163-.075-.415-.121-.756-.14-.047 0-.093.002-.14.007-.047 0-.14.007-.28.021a12.93 12.93 0 0 1-.294.028 1.31 1.31 0 0 1-.294.007c.01.681.014 1.237.014 1.666a.344.344 0 0 1-.105.252.333.333 0 0 1-.245.098.356.356 0 0 1-.252-.098.356.356 0 0 1-.098-.252c0-.457-.007-1.143-.02-2.058-.01-.92-.015-1.608-.015-2.065 0-.08.026-.152.077-.217a.328.328 0 0 1 .28-.252 7.577 7.577 0 0 1 2.051 0c.159.023.306.056.441.098.14.037.285.096.434.175.154.075.282.163.385.266.107.098.194.224.26.378.064.15.092.317.083.504-.019.509-.313.889-.882 1.141.121.093.226.205.315.336.065.098.128.22.19.364.06.145.106.275.14.392.036.112.08.257.132.434l.133.427a.335.335 0 0 1-.028.266.345.345 0 0 1-.21.168.335.335 0 0 1-.266-.028.345.345 0 0 1-.168-.21l-.14-.504Zm-2.429-2.037a6.557 6.557 0 0 1 .861-.014h.07c.406-.028.74-.091 1.001-.189.378-.135.572-.327.581-.574.014-.355-.324-.59-1.015-.707a5.995 5.995 0 0 0-1.596-.028c0 .392.005.9.014 1.526l.084-.014Zm5.586 2.849c-.332 0-.63-.063-.896-.189a1.605 1.605 0 0 1-.63-.532 1.39 1.39 0 0 1-.224-.777c0-.112.035-.2.105-.266a.367.367 0 0 1 .259-.105.31.31 0 0 1 .315.28c.065.602.452.903 1.162.903.34 0 .609-.075.805-.224a.691.691 0 0 0 .294-.574c0-.14-.068-.257-.203-.35a1.975 1.975 0 0 0-.553-.259l-.217-.077a8.985 8.985 0 0 1-.994-.378c-.29-.145-.507-.315-.651-.511a1.161 1.161 0 0 1-.21-.693c0-.233.074-.457.224-.672.149-.215.357-.387.623-.518.27-.135.571-.203.903-.203.345 0 .653.063.924.189.27.126.48.294.63.504.149.21.224.434.224.672a.388.388 0 0 1-.105.287.332.332 0 0 1-.245.098.324.324 0 0 1-.238-.098.384.384 0 0 1-.098-.273.484.484 0 0 0-.154-.336.994.994 0 0 0-.406-.266 1.424 1.424 0 0 0-.553-.105c-.346 0-.602.06-.77.182a.598.598 0 0 0-.266.49.4.4 0 0 0 .105.294c.074.084.191.17.35.259.149.08.308.154.476.224.168.065.392.145.672.238.373.126.67.292.889.497.224.2.336.462.336.784 0 .299-.089.562-.266.791a1.75 1.75 0 0 1-.7.532 2.32 2.32 0 0 1-.917.182Zm6.19-.098c-.63.01-1.62.002-2.974-.021a.348.348 0 0 1-.343-.35.386.386 0 0 1-.042-.175c.01-.317.014-.775.014-1.372 0-.597.002-1.003.007-1.218 0-.08-.002-.217-.007-.413a11.06 11.06 0 0 1 0-.553 3.81 3.81 0 0 1 .042-.483.356.356 0 0 1 .252-.28.347.347 0 0 1 .224-.091c.345-.01.838-.016 1.477-.021.644-.005 1.083-.007 1.316-.007a.32.32 0 0 1 .245.105.32.32 0 0 1 .105.245.344.344 0 0 1-.105.252.332.332 0 0 1-.245.098 216.025 216.025 0 0 0-2.604.021c-.014.065-.019.245-.014.539.01.29.014.49.014.602v.287c.229-.014.471-.021.728-.021.261 0 .555.002.882.007.331.005.576.007.735.007a.32.32 0 0 1 .245.105.32.32 0 0 1 .105.245.344.344 0 0 1-.105.252.332.332 0 0 1-.245.098c-.163 0-.41-.002-.742-.007a61.418 61.418 0 0 0-.875-.007c-.257 0-.502.007-.735.021 0 .663-.002 1.136-.007 1.421 1.139.019 2.018.023 2.639.014.098 0 .182.033.252.098s.105.147.105.245a.356.356 0 0 1-.098.252.321.321 0 0 1-.245.105Zm2.956.042a20.72 20.72 0 0 1-1.295-.007.35.35 0 0 1-.336-.336.321.321 0 0 1-.007-.063l-.035-1.883c-.018-.99-.028-1.797-.028-2.422 0-.098.033-.18.098-.245a.344.344 0 0 1 .252-.105.32.32 0 0 1 .245.105.32.32 0 0 1 .105.245c0 .471.002.924.007 1.358.01.434.019.912.028 1.435.014.518.021.924.021 1.218.243.005.614.002 1.113-.007.504-.01.887-.012 1.148-.007a.32.32 0 0 1 .245.105c.066.07.098.154.098.252s-.035.18-.105.245a.356.356 0 0 1-.252.098c-.252-.005-.686 0-1.302.014Zm2.375-.35c0-.182.002-.602.007-1.26.009-.658.009-1.197 0-1.617a21.242 21.242 0 0 0-.056-1.295c0-.028.002-.056.007-.084a.19.19 0 0 1-.007-.049c0-.098.032-.182.098-.252a.32.32 0 0 1 .245-.105c1.297-.023 2.247-.023 2.849 0a.346.346 0 0 1 .336.364.346.346 0 0 1-.364.336 45.308 45.308 0 0 0-2.45-.007c.028.439.044.922.049 1.449.308 0 1.001-.007 2.079-.021.098 0 .182.035.252.105a.32.32 0 0 1 .105.245.336.336 0 0 1-.105.245.315.315 0 0 1-.238.105c-1.083.014-1.781.021-2.093.021 0 .154-.003.441-.007.861-.005.415-.007.735-.007.959a.344.344 0 0 1-.105.252.334.334 0 0 1-.245.098.356.356 0 0 1-.252-.098.353.353 0 0 1-.098-.252Z" fill="#29292B"/><defs><linearGradient id="a" x1="7.746" y1="31.995" x2="43.42" y2="31.995" gradientUnits="userSpaceOnUse"><stop stop-color="#FFC940"/><stop offset=".331" stop-color="#FF7FA8"/><stop offset=".607" stop-color="#B797D7"/><stop offset=".977" stop-color="#73AEFC"/></linearGradient><linearGradient id="b" x1="11.374" y1="11.239" x2="40.569" y2="11.239" gradientUnits="userSpaceOnUse"><stop stop-color="#FFC940"/><stop offset=".331" stop-color="#FF7FA8"/><stop offset=".607" stop-color="#B797D7"/><stop offset=".977" stop-color="#73AEFC"/></linearGradient></defs></svg>